<mxfile host="app.diagrams.net" modified="2021-12-14T06:49:52.076Z" agent="5.0 (X11; Linux x86_64) AppleWebKit/537.36 (KHTML, like Gecko) Chrome/95.0.4638.54 Safari/537.36" etag="6H5DuUrtKBH32ThTPl2o" version="15.9.6" type="github" pages="2">
  <diagram id="R2lEEEUBdFMjLlhIrx00" name="Page-1">
    <mxGraphModel dx="1135" dy="1233" grid="1" gridSize="10" guides="1" tooltips="1" connect="1" arrows="1" fold="1" page="1" pageScale="1" pageWidth="850" pageHeight="1100" math="0" shadow="0" extFonts="Permanent Marker^https://fonts.googleapis.com/css?family=Permanent+Marker">
      <root>
        <mxCell id="0" />
        <mxCell id="1" parent="0" />
        <mxCell id="eReQPuj3m7FLNtVl1mEp-63" style="edgeStyle=orthogonalEdgeStyle;rounded=0;orthogonalLoop=1;jettySize=auto;html=1;exitX=1;exitY=1;exitDx=0;exitDy=0;entryX=0;entryY=0.5;entryDx=0;entryDy=0;endArrow=none;endFill=0;" edge="1" parent="1" source="qchl_65KG_xpSbtckRRL-71" target="qchl_65KG_xpSbtckRRL-77">
          <mxGeometry relative="1" as="geometry" />
        </mxCell>
        <mxCell id="eReQPuj3m7FLNtVl1mEp-64" style="edgeStyle=orthogonalEdgeStyle;rounded=0;orthogonalLoop=1;jettySize=auto;html=1;exitX=1;exitY=0;exitDx=0;exitDy=0;endArrow=none;endFill=0;" edge="1" parent="1" source="qchl_65KG_xpSbtckRRL-71" target="qchl_65KG_xpSbtckRRL-75">
          <mxGeometry relative="1" as="geometry">
            <Array as="points">
              <mxPoint x="1985" y="455" />
            </Array>
          </mxGeometry>
        </mxCell>
        <mxCell id="eReQPuj3m7FLNtVl1mEp-65" style="edgeStyle=orthogonalEdgeStyle;rounded=0;orthogonalLoop=1;jettySize=auto;html=1;entryX=0.5;entryY=1;entryDx=0;entryDy=0;endArrow=none;endFill=0;" edge="1" parent="1" source="qchl_65KG_xpSbtckRRL-71" target="qchl_65KG_xpSbtckRRL-73">
          <mxGeometry relative="1" as="geometry" />
        </mxCell>
        <mxCell id="eReQPuj3m7FLNtVl1mEp-66" style="edgeStyle=orthogonalEdgeStyle;rounded=0;orthogonalLoop=1;jettySize=auto;html=1;exitX=0;exitY=0;exitDx=0;exitDy=0;endArrow=none;endFill=0;" edge="1" parent="1" source="qchl_65KG_xpSbtckRRL-71" target="qchl_65KG_xpSbtckRRL-79">
          <mxGeometry relative="1" as="geometry">
            <Array as="points">
              <mxPoint x="1885" y="470" />
            </Array>
          </mxGeometry>
        </mxCell>
        <mxCell id="eReQPuj3m7FLNtVl1mEp-67" style="edgeStyle=orthogonalEdgeStyle;rounded=0;orthogonalLoop=1;jettySize=auto;html=1;exitX=0;exitY=1;exitDx=0;exitDy=0;endArrow=none;endFill=0;" edge="1" parent="1" source="qchl_65KG_xpSbtckRRL-71" target="qchl_65KG_xpSbtckRRL-89">
          <mxGeometry relative="1" as="geometry">
            <Array as="points">
              <mxPoint x="1885" y="600" />
            </Array>
          </mxGeometry>
        </mxCell>
        <mxCell id="qchl_65KG_xpSbtckRRL-71" value="Player" style="whiteSpace=wrap;html=1;align=center;" parent="1" vertex="1">
          <mxGeometry x="1885" y="505" width="100" height="40" as="geometry" />
        </mxCell>
        <mxCell id="qchl_65KG_xpSbtckRRL-73" value="Clothes_Set" style="ellipse;whiteSpace=wrap;html=1;align=center;" parent="1" vertex="1">
          <mxGeometry x="1885" y="360" width="100" height="50" as="geometry" />
        </mxCell>
        <mxCell id="qchl_65KG_xpSbtckRRL-75" value="Player_Name" style="ellipse;whiteSpace=wrap;html=1;align=center;" parent="1" vertex="1">
          <mxGeometry x="2025" y="435" width="100" height="50" as="geometry" />
        </mxCell>
        <mxCell id="qchl_65KG_xpSbtckRRL-77" value="Appearance" style="ellipse;whiteSpace=wrap;html=1;align=center;" parent="1" vertex="1">
          <mxGeometry x="2005" y="585" width="100" height="50" as="geometry" />
        </mxCell>
        <mxCell id="qchl_65KG_xpSbtckRRL-79" value="Wanted_Level" style="ellipse;whiteSpace=wrap;html=1;align=center;" parent="1" vertex="1">
          <mxGeometry x="1745" y="445" width="100" height="50" as="geometry" />
        </mxCell>
        <mxCell id="qchl_65KG_xpSbtckRRL-89" value="Money" style="ellipse;whiteSpace=wrap;html=1;align=center;" parent="1" vertex="1">
          <mxGeometry x="1775" y="575" width="100" height="50" as="geometry" />
        </mxCell>
        <mxCell id="qchl_65KG_xpSbtckRRL-90" value="Attributes" style="whiteSpace=wrap;html=1;align=center;" parent="1" vertex="1">
          <mxGeometry x="2320" y="190" width="100" height="40" as="geometry" />
        </mxCell>
        <mxCell id="qchl_65KG_xpSbtckRRL-91" style="edgeStyle=orthogonalEdgeStyle;rounded=0;orthogonalLoop=1;jettySize=auto;html=1;endArrow=none;endFill=0;" parent="1" source="qchl_65KG_xpSbtckRRL-92" target="qchl_65KG_xpSbtckRRL-90" edge="1">
          <mxGeometry relative="1" as="geometry" />
        </mxCell>
        <mxCell id="qchl_65KG_xpSbtckRRL-92" value="Armor" style="ellipse;whiteSpace=wrap;html=1;align=center;" parent="1" vertex="1">
          <mxGeometry x="2300" y="70" width="100" height="50" as="geometry" />
        </mxCell>
        <mxCell id="qchl_65KG_xpSbtckRRL-93" style="edgeStyle=orthogonalEdgeStyle;rounded=0;orthogonalLoop=1;jettySize=auto;html=1;entryX=0.75;entryY=0;entryDx=0;entryDy=0;endArrow=none;endFill=0;" parent="1" source="qchl_65KG_xpSbtckRRL-94" target="qchl_65KG_xpSbtckRRL-90" edge="1">
          <mxGeometry relative="1" as="geometry">
            <mxPoint x="2490" y="190" as="targetPoint" />
          </mxGeometry>
        </mxCell>
        <mxCell id="qchl_65KG_xpSbtckRRL-94" value="Health" style="ellipse;whiteSpace=wrap;html=1;align=center;" parent="1" vertex="1">
          <mxGeometry x="2420" y="70" width="100" height="50" as="geometry" />
        </mxCell>
        <mxCell id="qchl_65KG_xpSbtckRRL-95" style="edgeStyle=orthogonalEdgeStyle;rounded=0;orthogonalLoop=1;jettySize=auto;html=1;entryX=0;entryY=0;entryDx=0;entryDy=0;endArrow=none;endFill=0;" parent="1" source="qchl_65KG_xpSbtckRRL-96" target="qchl_65KG_xpSbtckRRL-90" edge="1">
          <mxGeometry relative="1" as="geometry">
            <mxPoint x="2260" y="210" as="targetPoint" />
            <Array as="points">
              <mxPoint x="2320" y="160" />
            </Array>
          </mxGeometry>
        </mxCell>
        <mxCell id="qchl_65KG_xpSbtckRRL-96" value="Stamina" style="ellipse;whiteSpace=wrap;html=1;align=center;" parent="1" vertex="1">
          <mxGeometry x="2180" y="70" width="100" height="50" as="geometry" />
        </mxCell>
        <mxCell id="qchl_65KG_xpSbtckRRL-97" style="edgeStyle=orthogonalEdgeStyle;rounded=0;orthogonalLoop=1;jettySize=auto;html=1;entryX=0;entryY=0.25;entryDx=0;entryDy=0;endArrow=none;endFill=0;" parent="1" source="qchl_65KG_xpSbtckRRL-98" target="qchl_65KG_xpSbtckRRL-90" edge="1">
          <mxGeometry relative="1" as="geometry">
            <mxPoint x="2260" y="270" as="targetPoint" />
            <Array as="points">
              <mxPoint x="2180" y="200" />
            </Array>
          </mxGeometry>
        </mxCell>
        <mxCell id="qchl_65KG_xpSbtckRRL-98" value="Shooting" style="ellipse;whiteSpace=wrap;html=1;align=center;" parent="1" vertex="1">
          <mxGeometry x="2100" y="130" width="100" height="50" as="geometry" />
        </mxCell>
        <mxCell id="qchl_65KG_xpSbtckRRL-99" style="edgeStyle=orthogonalEdgeStyle;rounded=0;orthogonalLoop=1;jettySize=auto;html=1;entryX=0;entryY=0.5;entryDx=0;entryDy=0;endArrow=none;endFill=0;" parent="1" source="qchl_65KG_xpSbtckRRL-100" target="qchl_65KG_xpSbtckRRL-90" edge="1">
          <mxGeometry relative="1" as="geometry">
            <mxPoint x="2330" y="290" as="targetPoint" />
            <Array as="points">
              <mxPoint x="2248" y="255" />
              <mxPoint x="2248" y="220" />
              <mxPoint x="2320" y="220" />
            </Array>
          </mxGeometry>
        </mxCell>
        <mxCell id="qchl_65KG_xpSbtckRRL-100" value="Strength" style="ellipse;whiteSpace=wrap;html=1;align=center;" parent="1" vertex="1">
          <mxGeometry x="2075" y="230" width="100" height="50" as="geometry" />
        </mxCell>
        <mxCell id="qchl_65KG_xpSbtckRRL-101" style="edgeStyle=orthogonalEdgeStyle;rounded=0;orthogonalLoop=1;jettySize=auto;html=1;entryX=0.5;entryY=1;entryDx=0;entryDy=0;endArrow=none;endFill=0;" parent="1" source="qchl_65KG_xpSbtckRRL-102" target="qchl_65KG_xpSbtckRRL-90" edge="1">
          <mxGeometry relative="1" as="geometry">
            <mxPoint x="2430" y="230" as="targetPoint" />
          </mxGeometry>
        </mxCell>
        <mxCell id="qchl_65KG_xpSbtckRRL-102" value="Driving" style="ellipse;whiteSpace=wrap;html=1;align=center;" parent="1" vertex="1">
          <mxGeometry x="2300" y="318" width="100" height="50" as="geometry" />
        </mxCell>
        <mxCell id="qchl_65KG_xpSbtckRRL-103" style="edgeStyle=orthogonalEdgeStyle;rounded=0;orthogonalLoop=1;jettySize=auto;html=1;entryX=0.898;entryY=1.079;entryDx=0;entryDy=0;entryPerimeter=0;endArrow=none;endFill=0;" parent="1" source="qchl_65KG_xpSbtckRRL-104" target="qchl_65KG_xpSbtckRRL-90" edge="1">
          <mxGeometry relative="1" as="geometry">
            <mxPoint x="2545" y="430" as="targetPoint" />
          </mxGeometry>
        </mxCell>
        <mxCell id="qchl_65KG_xpSbtckRRL-104" value="Lung_Capacity" style="ellipse;whiteSpace=wrap;html=1;align=center;" parent="1" vertex="1">
          <mxGeometry x="2420" y="318" width="100" height="50" as="geometry" />
        </mxCell>
        <mxCell id="qchl_65KG_xpSbtckRRL-105" style="edgeStyle=orthogonalEdgeStyle;rounded=0;orthogonalLoop=1;jettySize=auto;html=1;entryX=0.25;entryY=1;entryDx=0;entryDy=0;endArrow=none;endFill=0;" parent="1" source="qchl_65KG_xpSbtckRRL-106" target="qchl_65KG_xpSbtckRRL-90" edge="1">
          <mxGeometry relative="1" as="geometry">
            <mxPoint x="2330" y="280" as="targetPoint" />
            <Array as="points">
              <mxPoint x="2290" y="230" />
            </Array>
          </mxGeometry>
        </mxCell>
        <mxCell id="qchl_65KG_xpSbtckRRL-106" value="Flight" style="ellipse;whiteSpace=wrap;html=1;align=center;" parent="1" vertex="1">
          <mxGeometry x="2190" y="318" width="100" height="50" as="geometry" />
        </mxCell>
        <mxCell id="qchl_65KG_xpSbtckRRL-108" style="edgeStyle=orthogonalEdgeStyle;rounded=0;orthogonalLoop=1;jettySize=auto;html=1;entryX=1;entryY=0.75;entryDx=0;entryDy=0;endArrow=none;endFill=0;" parent="1" source="qchl_65KG_xpSbtckRRL-109" target="qchl_65KG_xpSbtckRRL-90" edge="1">
          <mxGeometry relative="1" as="geometry">
            <mxPoint x="2600" y="170" as="targetPoint" />
            <Array as="points">
              <mxPoint x="2600" y="280" />
              <mxPoint x="2485" y="280" />
              <mxPoint x="2485" y="220" />
            </Array>
          </mxGeometry>
        </mxCell>
        <mxCell id="qchl_65KG_xpSbtckRRL-109" value="PName" style="ellipse;whiteSpace=wrap;html=1;align=center;" parent="1" vertex="1">
          <mxGeometry x="2520" y="230" width="100" height="50" as="geometry" />
        </mxCell>
        <mxCell id="qchl_65KG_xpSbtckRRL-110" style="edgeStyle=orthogonalEdgeStyle;rounded=0;orthogonalLoop=1;jettySize=auto;html=1;entryX=1;entryY=0.25;entryDx=0;entryDy=0;endArrow=none;endFill=0;" parent="1" source="qchl_65KG_xpSbtckRRL-111" target="qchl_65KG_xpSbtckRRL-90" edge="1">
          <mxGeometry relative="1" as="geometry">
            <mxPoint x="2639.8" y="173.15999999999985" as="targetPoint" />
            <Array as="points">
              <mxPoint x="2520" y="200" />
            </Array>
          </mxGeometry>
        </mxCell>
        <mxCell id="qchl_65KG_xpSbtckRRL-111" value="Special_Ability" style="ellipse;whiteSpace=wrap;html=1;align=center;" parent="1" vertex="1">
          <mxGeometry x="2500" y="140" width="100" height="50" as="geometry" />
        </mxCell>
        <mxCell id="eReQPuj3m7FLNtVl1mEp-13" value="Gun" style="whiteSpace=wrap;html=1;align=center;" vertex="1" parent="1">
          <mxGeometry x="160" y="210" width="100" height="40" as="geometry" />
        </mxCell>
        <mxCell id="eReQPuj3m7FLNtVl1mEp-14" style="edgeStyle=orthogonalEdgeStyle;rounded=0;orthogonalLoop=1;jettySize=auto;html=1;" edge="1" parent="1" source="eReQPuj3m7FLNtVl1mEp-15" target="eReQPuj3m7FLNtVl1mEp-13">
          <mxGeometry relative="1" as="geometry" />
        </mxCell>
        <mxCell id="eReQPuj3m7FLNtVl1mEp-15" value="Gun_id" style="ellipse;whiteSpace=wrap;html=1;align=center;" vertex="1" parent="1">
          <mxGeometry x="130" y="110" width="100" height="50" as="geometry" />
        </mxCell>
        <mxCell id="eReQPuj3m7FLNtVl1mEp-16" style="edgeStyle=orthogonalEdgeStyle;rounded=0;orthogonalLoop=1;jettySize=auto;html=1;entryX=0.75;entryY=0;entryDx=0;entryDy=0;" edge="1" parent="1" source="eReQPuj3m7FLNtVl1mEp-17" target="eReQPuj3m7FLNtVl1mEp-13">
          <mxGeometry relative="1" as="geometry">
            <mxPoint x="330" y="210" as="targetPoint" />
          </mxGeometry>
        </mxCell>
        <mxCell id="eReQPuj3m7FLNtVl1mEp-17" value="Gun_Name" style="ellipse;whiteSpace=wrap;html=1;align=center;" vertex="1" parent="1">
          <mxGeometry x="250" y="110" width="100" height="50" as="geometry" />
        </mxCell>
        <mxCell id="eReQPuj3m7FLNtVl1mEp-18" style="edgeStyle=orthogonalEdgeStyle;rounded=0;orthogonalLoop=1;jettySize=auto;html=1;entryX=0;entryY=0;entryDx=0;entryDy=0;" edge="1" parent="1" source="eReQPuj3m7FLNtVl1mEp-19" target="eReQPuj3m7FLNtVl1mEp-13">
          <mxGeometry relative="1" as="geometry">
            <mxPoint x="100" y="230" as="targetPoint" />
            <Array as="points">
              <mxPoint x="160" y="180" />
            </Array>
          </mxGeometry>
        </mxCell>
        <mxCell id="eReQPuj3m7FLNtVl1mEp-19" value="Gun_Type" style="ellipse;whiteSpace=wrap;html=1;align=center;" vertex="1" parent="1">
          <mxGeometry x="20" y="130" width="100" height="50" as="geometry" />
        </mxCell>
        <mxCell id="eReQPuj3m7FLNtVl1mEp-20" style="edgeStyle=orthogonalEdgeStyle;rounded=0;orthogonalLoop=1;jettySize=auto;html=1;entryX=0;entryY=0.25;entryDx=0;entryDy=0;" edge="1" parent="1" source="eReQPuj3m7FLNtVl1mEp-21" target="eReQPuj3m7FLNtVl1mEp-13">
          <mxGeometry relative="1" as="geometry">
            <mxPoint x="100" y="290" as="targetPoint" />
          </mxGeometry>
        </mxCell>
        <mxCell id="eReQPuj3m7FLNtVl1mEp-21" value="Cost" style="ellipse;whiteSpace=wrap;html=1;align=center;" vertex="1" parent="1">
          <mxGeometry x="20" y="190" width="100" height="50" as="geometry" />
        </mxCell>
        <mxCell id="eReQPuj3m7FLNtVl1mEp-22" style="edgeStyle=orthogonalEdgeStyle;rounded=0;orthogonalLoop=1;jettySize=auto;html=1;entryX=0.44;entryY=1.025;entryDx=0;entryDy=0;entryPerimeter=0;" edge="1" parent="1" source="eReQPuj3m7FLNtVl1mEp-23" target="eReQPuj3m7FLNtVl1mEp-13">
          <mxGeometry relative="1" as="geometry">
            <mxPoint x="140" y="360" as="targetPoint" />
            <Array as="points">
              <mxPoint x="180" y="330" />
              <mxPoint x="180" y="270" />
              <mxPoint x="204" y="270" />
            </Array>
          </mxGeometry>
        </mxCell>
        <mxCell id="eReQPuj3m7FLNtVl1mEp-23" value="Damage" style="ellipse;whiteSpace=wrap;html=1;align=center;" vertex="1" parent="1">
          <mxGeometry x="136" y="280" width="100" height="50" as="geometry" />
        </mxCell>
        <mxCell id="eReQPuj3m7FLNtVl1mEp-24" style="edgeStyle=orthogonalEdgeStyle;rounded=0;orthogonalLoop=1;jettySize=auto;html=1;entryX=0.41;entryY=1.04;entryDx=0;entryDy=0;entryPerimeter=0;" edge="1" parent="1" source="eReQPuj3m7FLNtVl1mEp-25" target="eReQPuj3m7FLNtVl1mEp-23">
          <mxGeometry relative="1" as="geometry">
            <mxPoint x="196" y="500" as="targetPoint" />
            <Array as="points">
              <mxPoint x="166" y="370" />
              <mxPoint x="196" y="370" />
              <mxPoint x="196" y="342" />
            </Array>
          </mxGeometry>
        </mxCell>
        <mxCell id="eReQPuj3m7FLNtVl1mEp-25" value="Head_Dmg" style="ellipse;whiteSpace=wrap;html=1;align=center;" vertex="1" parent="1">
          <mxGeometry x="116" y="400" width="100" height="50" as="geometry" />
        </mxCell>
        <mxCell id="eReQPuj3m7FLNtVl1mEp-26" style="edgeStyle=orthogonalEdgeStyle;rounded=0;orthogonalLoop=1;jettySize=auto;html=1;entryX=0.7;entryY=1;entryDx=0;entryDy=0;entryPerimeter=0;" edge="1" parent="1" source="eReQPuj3m7FLNtVl1mEp-27" target="eReQPuj3m7FLNtVl1mEp-23">
          <mxGeometry relative="1" as="geometry">
            <mxPoint x="327" y="352" as="targetPoint" />
            <Array as="points">
              <mxPoint x="266" y="380" />
              <mxPoint x="296" y="380" />
              <mxPoint x="296" y="352" />
              <mxPoint x="256" y="352" />
            </Array>
          </mxGeometry>
        </mxCell>
        <mxCell id="eReQPuj3m7FLNtVl1mEp-27" value="Body_Dmg" style="ellipse;whiteSpace=wrap;html=1;align=center;" vertex="1" parent="1">
          <mxGeometry x="216" y="410" width="100" height="50" as="geometry" />
        </mxCell>
        <mxCell id="eReQPuj3m7FLNtVl1mEp-28" style="edgeStyle=orthogonalEdgeStyle;rounded=0;orthogonalLoop=1;jettySize=auto;html=1;entryX=1;entryY=0;entryDx=0;entryDy=0;" edge="1" parent="1" source="eReQPuj3m7FLNtVl1mEp-29" target="eReQPuj3m7FLNtVl1mEp-23">
          <mxGeometry relative="1" as="geometry">
            <mxPoint x="436" y="310" as="targetPoint" />
            <Array as="points">
              <mxPoint x="375" y="338" />
              <mxPoint x="405" y="338" />
              <mxPoint x="405" y="310" />
              <mxPoint x="271" y="310" />
            </Array>
          </mxGeometry>
        </mxCell>
        <mxCell id="eReQPuj3m7FLNtVl1mEp-29" value="Leg_Dmg" style="ellipse;whiteSpace=wrap;html=1;align=center;" vertex="1" parent="1">
          <mxGeometry x="325" y="368" width="100" height="50" as="geometry" />
        </mxCell>
        <mxCell id="eReQPuj3m7FLNtVl1mEp-30" value="Vehicle" style="whiteSpace=wrap;html=1;align=center;" vertex="1" parent="1">
          <mxGeometry x="750" y="190" width="100" height="40" as="geometry" />
        </mxCell>
        <mxCell id="eReQPuj3m7FLNtVl1mEp-31" style="edgeStyle=orthogonalEdgeStyle;rounded=0;orthogonalLoop=1;jettySize=auto;html=1;" edge="1" parent="1" source="eReQPuj3m7FLNtVl1mEp-32" target="eReQPuj3m7FLNtVl1mEp-30">
          <mxGeometry relative="1" as="geometry" />
        </mxCell>
        <mxCell id="eReQPuj3m7FLNtVl1mEp-32" value="Vehicle_id" style="ellipse;whiteSpace=wrap;html=1;align=center;" vertex="1" parent="1">
          <mxGeometry x="720" y="90" width="100" height="50" as="geometry" />
        </mxCell>
        <mxCell id="eReQPuj3m7FLNtVl1mEp-33" style="edgeStyle=orthogonalEdgeStyle;rounded=0;orthogonalLoop=1;jettySize=auto;html=1;entryX=0.75;entryY=0;entryDx=0;entryDy=0;" edge="1" parent="1" source="eReQPuj3m7FLNtVl1mEp-34" target="eReQPuj3m7FLNtVl1mEp-30">
          <mxGeometry relative="1" as="geometry">
            <mxPoint x="920" y="190" as="targetPoint" />
          </mxGeometry>
        </mxCell>
        <mxCell id="eReQPuj3m7FLNtVl1mEp-34" value="Vehicle_Name" style="ellipse;whiteSpace=wrap;html=1;align=center;" vertex="1" parent="1">
          <mxGeometry x="840" y="90" width="100" height="50" as="geometry" />
        </mxCell>
        <mxCell id="eReQPuj3m7FLNtVl1mEp-35" style="edgeStyle=orthogonalEdgeStyle;rounded=0;orthogonalLoop=1;jettySize=auto;html=1;entryX=0;entryY=0;entryDx=0;entryDy=0;" edge="1" parent="1" source="eReQPuj3m7FLNtVl1mEp-36" target="eReQPuj3m7FLNtVl1mEp-30">
          <mxGeometry relative="1" as="geometry">
            <mxPoint x="690" y="210" as="targetPoint" />
            <Array as="points">
              <mxPoint x="750" y="160" />
            </Array>
          </mxGeometry>
        </mxCell>
        <mxCell id="eReQPuj3m7FLNtVl1mEp-36" value="Vehicle_Type" style="ellipse;whiteSpace=wrap;html=1;align=center;" vertex="1" parent="1">
          <mxGeometry x="610" y="110" width="100" height="50" as="geometry" />
        </mxCell>
        <mxCell id="eReQPuj3m7FLNtVl1mEp-37" style="edgeStyle=orthogonalEdgeStyle;rounded=0;orthogonalLoop=1;jettySize=auto;html=1;entryX=0;entryY=0.25;entryDx=0;entryDy=0;" edge="1" parent="1" source="eReQPuj3m7FLNtVl1mEp-38" target="eReQPuj3m7FLNtVl1mEp-30">
          <mxGeometry relative="1" as="geometry">
            <mxPoint x="690" y="270" as="targetPoint" />
          </mxGeometry>
        </mxCell>
        <mxCell id="eReQPuj3m7FLNtVl1mEp-38" value="Cost" style="ellipse;whiteSpace=wrap;html=1;align=center;" vertex="1" parent="1">
          <mxGeometry x="610" y="170" width="100" height="50" as="geometry" />
        </mxCell>
        <mxCell id="eReQPuj3m7FLNtVl1mEp-39" style="edgeStyle=orthogonalEdgeStyle;rounded=0;orthogonalLoop=1;jettySize=auto;html=1;entryX=1;entryY=0.75;entryDx=0;entryDy=0;" edge="1" parent="1" source="eReQPuj3m7FLNtVl1mEp-40" target="eReQPuj3m7FLNtVl1mEp-30">
          <mxGeometry relative="1" as="geometry">
            <mxPoint x="1030" y="210" as="targetPoint" />
          </mxGeometry>
        </mxCell>
        <mxCell id="eReQPuj3m7FLNtVl1mEp-40" value="Weapon_Equippable" style="ellipse;whiteSpace=wrap;html=1;align=center;" vertex="1" parent="1">
          <mxGeometry x="890" y="180" width="130" height="50" as="geometry" />
        </mxCell>
        <mxCell id="eReQPuj3m7FLNtVl1mEp-41" value="Property" style="whiteSpace=wrap;html=1;align=center;" vertex="1" parent="1">
          <mxGeometry x="750" y="440" width="100" height="40" as="geometry" />
        </mxCell>
        <mxCell id="eReQPuj3m7FLNtVl1mEp-42" style="edgeStyle=orthogonalEdgeStyle;rounded=0;orthogonalLoop=1;jettySize=auto;html=1;" edge="1" parent="1" source="eReQPuj3m7FLNtVl1mEp-43" target="eReQPuj3m7FLNtVl1mEp-41">
          <mxGeometry relative="1" as="geometry" />
        </mxCell>
        <mxCell id="eReQPuj3m7FLNtVl1mEp-43" value="Property_id" style="ellipse;whiteSpace=wrap;html=1;align=center;" vertex="1" parent="1">
          <mxGeometry x="720" y="340" width="100" height="50" as="geometry" />
        </mxCell>
        <mxCell id="eReQPuj3m7FLNtVl1mEp-44" style="edgeStyle=orthogonalEdgeStyle;rounded=0;orthogonalLoop=1;jettySize=auto;html=1;entryX=0.75;entryY=0;entryDx=0;entryDy=0;" edge="1" parent="1" source="eReQPuj3m7FLNtVl1mEp-45" target="eReQPuj3m7FLNtVl1mEp-41">
          <mxGeometry relative="1" as="geometry">
            <mxPoint x="920" y="440" as="targetPoint" />
          </mxGeometry>
        </mxCell>
        <mxCell id="eReQPuj3m7FLNtVl1mEp-45" value="Property_Name" style="ellipse;whiteSpace=wrap;html=1;align=center;" vertex="1" parent="1">
          <mxGeometry x="850" y="340" width="100" height="50" as="geometry" />
        </mxCell>
        <mxCell id="eReQPuj3m7FLNtVl1mEp-46" style="edgeStyle=orthogonalEdgeStyle;rounded=0;orthogonalLoop=1;jettySize=auto;html=1;entryX=0;entryY=0;entryDx=0;entryDy=0;" edge="1" parent="1" source="eReQPuj3m7FLNtVl1mEp-47" target="eReQPuj3m7FLNtVl1mEp-41">
          <mxGeometry relative="1" as="geometry">
            <mxPoint x="690" y="460" as="targetPoint" />
            <Array as="points">
              <mxPoint x="750" y="410" />
            </Array>
          </mxGeometry>
        </mxCell>
        <mxCell id="eReQPuj3m7FLNtVl1mEp-47" value="Property_Type" style="ellipse;whiteSpace=wrap;html=1;align=center;" vertex="1" parent="1">
          <mxGeometry x="610" y="360" width="100" height="50" as="geometry" />
        </mxCell>
        <mxCell id="eReQPuj3m7FLNtVl1mEp-48" style="edgeStyle=orthogonalEdgeStyle;rounded=0;orthogonalLoop=1;jettySize=auto;html=1;entryX=0;entryY=0.25;entryDx=0;entryDy=0;" edge="1" parent="1" source="eReQPuj3m7FLNtVl1mEp-49" target="eReQPuj3m7FLNtVl1mEp-41">
          <mxGeometry relative="1" as="geometry">
            <mxPoint x="690" y="520" as="targetPoint" />
          </mxGeometry>
        </mxCell>
        <mxCell id="eReQPuj3m7FLNtVl1mEp-49" value="Cost" style="ellipse;whiteSpace=wrap;html=1;align=center;" vertex="1" parent="1">
          <mxGeometry x="610" y="420" width="100" height="50" as="geometry" />
        </mxCell>
        <mxCell id="eReQPuj3m7FLNtVl1mEp-50" style="edgeStyle=orthogonalEdgeStyle;rounded=0;orthogonalLoop=1;jettySize=auto;html=1;entryX=1;entryY=0.75;entryDx=0;entryDy=0;" edge="1" parent="1" source="eReQPuj3m7FLNtVl1mEp-51" target="eReQPuj3m7FLNtVl1mEp-41">
          <mxGeometry relative="1" as="geometry">
            <mxPoint x="1030" y="460" as="targetPoint" />
          </mxGeometry>
        </mxCell>
        <mxCell id="eReQPuj3m7FLNtVl1mEp-51" value="Property_Location" style="ellipse;whiteSpace=wrap;html=1;align=center;" vertex="1" parent="1">
          <mxGeometry x="890" y="430" width="130" height="50" as="geometry" />
        </mxCell>
        <mxCell id="eReQPuj3m7FLNtVl1mEp-52" style="edgeStyle=orthogonalEdgeStyle;rounded=0;orthogonalLoop=1;jettySize=auto;html=1;" edge="1" parent="1" source="eReQPuj3m7FLNtVl1mEp-53" target="eReQPuj3m7FLNtVl1mEp-41">
          <mxGeometry relative="1" as="geometry" />
        </mxCell>
        <mxCell id="eReQPuj3m7FLNtVl1mEp-53" value="Property_Size" style="ellipse;whiteSpace=wrap;html=1;align=center;" vertex="1" parent="1">
          <mxGeometry x="800" y="525" width="100" height="50" as="geometry" />
        </mxCell>
        <mxCell id="eReQPuj3m7FLNtVl1mEp-54" value="World_Property" style="whiteSpace=wrap;html=1;align=center;" vertex="1" parent="1">
          <mxGeometry x="735" y="720" width="100" height="40" as="geometry" />
        </mxCell>
        <mxCell id="eReQPuj3m7FLNtVl1mEp-55" style="edgeStyle=orthogonalEdgeStyle;rounded=0;orthogonalLoop=1;jettySize=auto;html=1;entryX=0.75;entryY=0;entryDx=0;entryDy=0;" edge="1" parent="1" source="eReQPuj3m7FLNtVl1mEp-56" target="eReQPuj3m7FLNtVl1mEp-54">
          <mxGeometry relative="1" as="geometry">
            <mxPoint x="905" y="720" as="targetPoint" />
          </mxGeometry>
        </mxCell>
        <mxCell id="eReQPuj3m7FLNtVl1mEp-56" value="WProperty_Name" style="ellipse;whiteSpace=wrap;html=1;align=center;" vertex="1" parent="1">
          <mxGeometry x="835" y="620" width="100" height="50" as="geometry" />
        </mxCell>
        <mxCell id="eReQPuj3m7FLNtVl1mEp-57" style="edgeStyle=orthogonalEdgeStyle;rounded=0;orthogonalLoop=1;jettySize=auto;html=1;entryX=0;entryY=0;entryDx=0;entryDy=0;" edge="1" parent="1" source="eReQPuj3m7FLNtVl1mEp-58" target="eReQPuj3m7FLNtVl1mEp-54">
          <mxGeometry relative="1" as="geometry">
            <mxPoint x="675" y="740" as="targetPoint" />
            <Array as="points">
              <mxPoint x="735" y="690" />
            </Array>
          </mxGeometry>
        </mxCell>
        <mxCell id="eReQPuj3m7FLNtVl1mEp-58" value="WProperty_Type" style="ellipse;whiteSpace=wrap;html=1;align=center;" vertex="1" parent="1">
          <mxGeometry x="700" y="610" width="100" height="50" as="geometry" />
        </mxCell>
        <mxCell id="eReQPuj3m7FLNtVl1mEp-59" style="edgeStyle=orthogonalEdgeStyle;rounded=0;orthogonalLoop=1;jettySize=auto;html=1;entryX=1;entryY=0.75;entryDx=0;entryDy=0;" edge="1" parent="1" source="eReQPuj3m7FLNtVl1mEp-60" target="eReQPuj3m7FLNtVl1mEp-54">
          <mxGeometry relative="1" as="geometry">
            <mxPoint x="1015" y="740" as="targetPoint" />
          </mxGeometry>
        </mxCell>
        <mxCell id="eReQPuj3m7FLNtVl1mEp-60" value="WProperty_Location" style="ellipse;whiteSpace=wrap;html=1;align=center;" vertex="1" parent="1">
          <mxGeometry x="875" y="710" width="130" height="50" as="geometry" />
        </mxCell>
        <mxCell id="eReQPuj3m7FLNtVl1mEp-61" style="edgeStyle=orthogonalEdgeStyle;rounded=0;orthogonalLoop=1;jettySize=auto;html=1;" edge="1" parent="1" source="eReQPuj3m7FLNtVl1mEp-62" target="eReQPuj3m7FLNtVl1mEp-54">
          <mxGeometry relative="1" as="geometry" />
        </mxCell>
        <mxCell id="eReQPuj3m7FLNtVl1mEp-62" value="WProperty_Size" style="ellipse;whiteSpace=wrap;html=1;align=center;" vertex="1" parent="1">
          <mxGeometry x="785" y="805" width="100" height="50" as="geometry" />
        </mxCell>
      </root>
    </mxGraphModel>
  </diagram>
  <diagram id="N0MDrk6gwrcIpVZHjptZ" name="Page-2">
    <mxGraphModel dx="1297" dy="1409" grid="1" gridSize="10" guides="1" tooltips="1" connect="1" arrows="1" fold="1" page="1" pageScale="1" pageWidth="827" pageHeight="1169" math="0" shadow="0">
      <root>
        <mxCell id="S_ySvswpd-Fd6EDV8Ecz-0" />
        <mxCell id="S_ySvswpd-Fd6EDV8Ecz-1" parent="S_ySvswpd-Fd6EDV8Ecz-0" />
        <mxCell id="1RJlVSkSbTlHXv3AcvY7-3" value="Gun" style="shape=table;startSize=30;container=1;collapsible=1;childLayout=tableLayout;fixedRows=1;rowLines=0;fontStyle=1;align=center;resizeLast=1;" vertex="1" parent="S_ySvswpd-Fd6EDV8Ecz-1">
          <mxGeometry x="20" y="40" width="180" height="250" as="geometry" />
        </mxCell>
        <mxCell id="1RJlVSkSbTlHXv3AcvY7-4" value="" style="shape=partialRectangle;collapsible=0;dropTarget=0;pointerEvents=0;fillColor=none;top=0;left=0;bottom=1;right=0;points=[[0,0.5],[1,0.5]];portConstraint=eastwest;" vertex="1" parent="1RJlVSkSbTlHXv3AcvY7-3">
          <mxGeometry y="30" width="180" height="30" as="geometry" />
        </mxCell>
        <mxCell id="1RJlVSkSbTlHXv3AcvY7-5" value="PK" style="shape=partialRectangle;connectable=0;fillColor=none;top=0;left=0;bottom=0;right=0;fontStyle=1;overflow=hidden;" vertex="1" parent="1RJlVSkSbTlHXv3AcvY7-4">
          <mxGeometry width="30" height="30" as="geometry">
            <mxRectangle width="30" height="30" as="alternateBounds" />
          </mxGeometry>
        </mxCell>
        <mxCell id="1RJlVSkSbTlHXv3AcvY7-6" value="Gun_Id" style="shape=partialRectangle;connectable=0;fillColor=none;top=0;left=0;bottom=0;right=0;align=left;spacingLeft=6;fontStyle=5;overflow=hidden;" vertex="1" parent="1RJlVSkSbTlHXv3AcvY7-4">
          <mxGeometry x="30" width="150" height="30" as="geometry">
            <mxRectangle width="150" height="30" as="alternateBounds" />
          </mxGeometry>
        </mxCell>
        <mxCell id="1RJlVSkSbTlHXv3AcvY7-7" value="" style="shape=partialRectangle;collapsible=0;dropTarget=0;pointerEvents=0;fillColor=none;top=0;left=0;bottom=0;right=0;points=[[0,0.5],[1,0.5]];portConstraint=eastwest;" vertex="1" parent="1RJlVSkSbTlHXv3AcvY7-3">
          <mxGeometry y="60" width="180" height="30" as="geometry" />
        </mxCell>
        <mxCell id="1RJlVSkSbTlHXv3AcvY7-8" value="" style="shape=partialRectangle;connectable=0;fillColor=none;top=0;left=0;bottom=0;right=0;editable=1;overflow=hidden;" vertex="1" parent="1RJlVSkSbTlHXv3AcvY7-7">
          <mxGeometry width="30" height="30" as="geometry">
            <mxRectangle width="30" height="30" as="alternateBounds" />
          </mxGeometry>
        </mxCell>
        <mxCell id="1RJlVSkSbTlHXv3AcvY7-9" value="Gun_Name" style="shape=partialRectangle;connectable=0;fillColor=none;top=0;left=0;bottom=0;right=0;align=left;spacingLeft=6;overflow=hidden;" vertex="1" parent="1RJlVSkSbTlHXv3AcvY7-7">
          <mxGeometry x="30" width="150" height="30" as="geometry">
            <mxRectangle width="150" height="30" as="alternateBounds" />
          </mxGeometry>
        </mxCell>
        <mxCell id="1RJlVSkSbTlHXv3AcvY7-10" value="" style="shape=partialRectangle;collapsible=0;dropTarget=0;pointerEvents=0;fillColor=none;top=0;left=0;bottom=0;right=0;points=[[0,0.5],[1,0.5]];portConstraint=eastwest;" vertex="1" parent="1RJlVSkSbTlHXv3AcvY7-3">
          <mxGeometry y="90" width="180" height="30" as="geometry" />
        </mxCell>
        <mxCell id="1RJlVSkSbTlHXv3AcvY7-11" value="" style="shape=partialRectangle;connectable=0;fillColor=none;top=0;left=0;bottom=0;right=0;editable=1;overflow=hidden;" vertex="1" parent="1RJlVSkSbTlHXv3AcvY7-10">
          <mxGeometry width="30" height="30" as="geometry">
            <mxRectangle width="30" height="30" as="alternateBounds" />
          </mxGeometry>
        </mxCell>
        <mxCell id="1RJlVSkSbTlHXv3AcvY7-12" value="Gun_Type" style="shape=partialRectangle;connectable=0;fillColor=none;top=0;left=0;bottom=0;right=0;align=left;spacingLeft=6;overflow=hidden;" vertex="1" parent="1RJlVSkSbTlHXv3AcvY7-10">
          <mxGeometry x="30" width="150" height="30" as="geometry">
            <mxRectangle width="150" height="30" as="alternateBounds" />
          </mxGeometry>
        </mxCell>
        <mxCell id="1RJlVSkSbTlHXv3AcvY7-13" value="" style="shape=partialRectangle;collapsible=0;dropTarget=0;pointerEvents=0;fillColor=none;top=0;left=0;bottom=0;right=0;points=[[0,0.5],[1,0.5]];portConstraint=eastwest;" vertex="1" parent="1RJlVSkSbTlHXv3AcvY7-3">
          <mxGeometry y="120" width="180" height="30" as="geometry" />
        </mxCell>
        <mxCell id="1RJlVSkSbTlHXv3AcvY7-14" value="" style="shape=partialRectangle;connectable=0;fillColor=none;top=0;left=0;bottom=0;right=0;editable=1;overflow=hidden;" vertex="1" parent="1RJlVSkSbTlHXv3AcvY7-13">
          <mxGeometry width="30" height="30" as="geometry">
            <mxRectangle width="30" height="30" as="alternateBounds" />
          </mxGeometry>
        </mxCell>
        <mxCell id="1RJlVSkSbTlHXv3AcvY7-15" value="Gun_Cost" style="shape=partialRectangle;connectable=0;fillColor=none;top=0;left=0;bottom=0;right=0;align=left;spacingLeft=6;overflow=hidden;" vertex="1" parent="1RJlVSkSbTlHXv3AcvY7-13">
          <mxGeometry x="30" width="150" height="30" as="geometry">
            <mxRectangle width="150" height="30" as="alternateBounds" />
          </mxGeometry>
        </mxCell>
        <mxCell id="1RJlVSkSbTlHXv3AcvY7-17" value="" style="shape=partialRectangle;collapsible=0;dropTarget=0;pointerEvents=0;fillColor=none;top=0;left=0;bottom=0;right=0;points=[[0,0.5],[1,0.5]];portConstraint=eastwest;" vertex="1" parent="1RJlVSkSbTlHXv3AcvY7-3">
          <mxGeometry y="150" width="180" height="30" as="geometry" />
        </mxCell>
        <mxCell id="1RJlVSkSbTlHXv3AcvY7-18" value="" style="shape=partialRectangle;connectable=0;fillColor=none;top=0;left=0;bottom=0;right=0;editable=1;overflow=hidden;" vertex="1" parent="1RJlVSkSbTlHXv3AcvY7-17">
          <mxGeometry width="30" height="30" as="geometry">
            <mxRectangle width="30" height="30" as="alternateBounds" />
          </mxGeometry>
        </mxCell>
        <mxCell id="1RJlVSkSbTlHXv3AcvY7-19" value="Head_Damage" style="shape=partialRectangle;connectable=0;fillColor=none;top=0;left=0;bottom=0;right=0;align=left;spacingLeft=6;overflow=hidden;" vertex="1" parent="1RJlVSkSbTlHXv3AcvY7-17">
          <mxGeometry x="30" width="150" height="30" as="geometry">
            <mxRectangle width="150" height="30" as="alternateBounds" />
          </mxGeometry>
        </mxCell>
        <mxCell id="1RJlVSkSbTlHXv3AcvY7-20" value="" style="shape=partialRectangle;collapsible=0;dropTarget=0;pointerEvents=0;fillColor=none;top=0;left=0;bottom=0;right=0;points=[[0,0.5],[1,0.5]];portConstraint=eastwest;" vertex="1" parent="1RJlVSkSbTlHXv3AcvY7-3">
          <mxGeometry y="180" width="180" height="30" as="geometry" />
        </mxCell>
        <mxCell id="1RJlVSkSbTlHXv3AcvY7-21" value="" style="shape=partialRectangle;connectable=0;fillColor=none;top=0;left=0;bottom=0;right=0;editable=1;overflow=hidden;" vertex="1" parent="1RJlVSkSbTlHXv3AcvY7-20">
          <mxGeometry width="30" height="30" as="geometry">
            <mxRectangle width="30" height="30" as="alternateBounds" />
          </mxGeometry>
        </mxCell>
        <mxCell id="1RJlVSkSbTlHXv3AcvY7-22" value="Body_Damage" style="shape=partialRectangle;connectable=0;fillColor=none;top=0;left=0;bottom=0;right=0;align=left;spacingLeft=6;overflow=hidden;" vertex="1" parent="1RJlVSkSbTlHXv3AcvY7-20">
          <mxGeometry x="30" width="150" height="30" as="geometry">
            <mxRectangle width="150" height="30" as="alternateBounds" />
          </mxGeometry>
        </mxCell>
        <mxCell id="1RJlVSkSbTlHXv3AcvY7-23" value="" style="shape=partialRectangle;collapsible=0;dropTarget=0;pointerEvents=0;fillColor=none;top=0;left=0;bottom=0;right=0;points=[[0,0.5],[1,0.5]];portConstraint=eastwest;" vertex="1" parent="1RJlVSkSbTlHXv3AcvY7-3">
          <mxGeometry y="210" width="180" height="30" as="geometry" />
        </mxCell>
        <mxCell id="1RJlVSkSbTlHXv3AcvY7-24" value="" style="shape=partialRectangle;connectable=0;fillColor=none;top=0;left=0;bottom=0;right=0;editable=1;overflow=hidden;" vertex="1" parent="1RJlVSkSbTlHXv3AcvY7-23">
          <mxGeometry width="30" height="30" as="geometry">
            <mxRectangle width="30" height="30" as="alternateBounds" />
          </mxGeometry>
        </mxCell>
        <mxCell id="1RJlVSkSbTlHXv3AcvY7-25" value="Leg_Damage" style="shape=partialRectangle;connectable=0;fillColor=none;top=0;left=0;bottom=0;right=0;align=left;spacingLeft=6;overflow=hidden;" vertex="1" parent="1RJlVSkSbTlHXv3AcvY7-23">
          <mxGeometry x="30" width="150" height="30" as="geometry">
            <mxRectangle width="150" height="30" as="alternateBounds" />
          </mxGeometry>
        </mxCell>
        <mxCell id="1RJlVSkSbTlHXv3AcvY7-29" value="Player" style="shape=table;startSize=30;container=1;collapsible=1;childLayout=tableLayout;fixedRows=1;rowLines=0;fontStyle=1;align=center;resizeLast=1;" vertex="1" parent="S_ySvswpd-Fd6EDV8Ecz-1">
          <mxGeometry x="323" y="540" width="180" height="190" as="geometry" />
        </mxCell>
        <mxCell id="1RJlVSkSbTlHXv3AcvY7-30" value="" style="shape=partialRectangle;collapsible=0;dropTarget=0;pointerEvents=0;fillColor=none;top=0;left=0;bottom=1;right=0;points=[[0,0.5],[1,0.5]];portConstraint=eastwest;" vertex="1" parent="1RJlVSkSbTlHXv3AcvY7-29">
          <mxGeometry y="30" width="180" height="30" as="geometry" />
        </mxCell>
        <mxCell id="1RJlVSkSbTlHXv3AcvY7-31" value="PK" style="shape=partialRectangle;connectable=0;fillColor=none;top=0;left=0;bottom=0;right=0;fontStyle=1;overflow=hidden;" vertex="1" parent="1RJlVSkSbTlHXv3AcvY7-30">
          <mxGeometry width="30" height="30" as="geometry">
            <mxRectangle width="30" height="30" as="alternateBounds" />
          </mxGeometry>
        </mxCell>
        <mxCell id="1RJlVSkSbTlHXv3AcvY7-32" value="Player_Name" style="shape=partialRectangle;connectable=0;fillColor=none;top=0;left=0;bottom=0;right=0;align=left;spacingLeft=6;fontStyle=5;overflow=hidden;" vertex="1" parent="1RJlVSkSbTlHXv3AcvY7-30">
          <mxGeometry x="30" width="150" height="30" as="geometry">
            <mxRectangle width="150" height="30" as="alternateBounds" />
          </mxGeometry>
        </mxCell>
        <mxCell id="1RJlVSkSbTlHXv3AcvY7-33" value="" style="shape=partialRectangle;collapsible=0;dropTarget=0;pointerEvents=0;fillColor=none;top=0;left=0;bottom=0;right=0;points=[[0,0.5],[1,0.5]];portConstraint=eastwest;" vertex="1" parent="1RJlVSkSbTlHXv3AcvY7-29">
          <mxGeometry y="60" width="180" height="30" as="geometry" />
        </mxCell>
        <mxCell id="1RJlVSkSbTlHXv3AcvY7-34" value="" style="shape=partialRectangle;connectable=0;fillColor=none;top=0;left=0;bottom=0;right=0;editable=1;overflow=hidden;" vertex="1" parent="1RJlVSkSbTlHXv3AcvY7-33">
          <mxGeometry width="30" height="30" as="geometry">
            <mxRectangle width="30" height="30" as="alternateBounds" />
          </mxGeometry>
        </mxCell>
        <mxCell id="1RJlVSkSbTlHXv3AcvY7-35" value="Wanted_Level" style="shape=partialRectangle;connectable=0;fillColor=none;top=0;left=0;bottom=0;right=0;align=left;spacingLeft=6;overflow=hidden;" vertex="1" parent="1RJlVSkSbTlHXv3AcvY7-33">
          <mxGeometry x="30" width="150" height="30" as="geometry">
            <mxRectangle width="150" height="30" as="alternateBounds" />
          </mxGeometry>
        </mxCell>
        <mxCell id="1RJlVSkSbTlHXv3AcvY7-36" value="" style="shape=partialRectangle;collapsible=0;dropTarget=0;pointerEvents=0;fillColor=none;top=0;left=0;bottom=0;right=0;points=[[0,0.5],[1,0.5]];portConstraint=eastwest;" vertex="1" parent="1RJlVSkSbTlHXv3AcvY7-29">
          <mxGeometry y="90" width="180" height="30" as="geometry" />
        </mxCell>
        <mxCell id="1RJlVSkSbTlHXv3AcvY7-37" value="" style="shape=partialRectangle;connectable=0;fillColor=none;top=0;left=0;bottom=0;right=0;editable=1;overflow=hidden;" vertex="1" parent="1RJlVSkSbTlHXv3AcvY7-36">
          <mxGeometry width="30" height="30" as="geometry">
            <mxRectangle width="30" height="30" as="alternateBounds" />
          </mxGeometry>
        </mxCell>
        <mxCell id="1RJlVSkSbTlHXv3AcvY7-38" value="Money" style="shape=partialRectangle;connectable=0;fillColor=none;top=0;left=0;bottom=0;right=0;align=left;spacingLeft=6;overflow=hidden;" vertex="1" parent="1RJlVSkSbTlHXv3AcvY7-36">
          <mxGeometry x="30" width="150" height="30" as="geometry">
            <mxRectangle width="150" height="30" as="alternateBounds" />
          </mxGeometry>
        </mxCell>
        <mxCell id="1RJlVSkSbTlHXv3AcvY7-39" value="" style="shape=partialRectangle;collapsible=0;dropTarget=0;pointerEvents=0;fillColor=none;top=0;left=0;bottom=0;right=0;points=[[0,0.5],[1,0.5]];portConstraint=eastwest;" vertex="1" parent="1RJlVSkSbTlHXv3AcvY7-29">
          <mxGeometry y="120" width="180" height="30" as="geometry" />
        </mxCell>
        <mxCell id="1RJlVSkSbTlHXv3AcvY7-40" value="" style="shape=partialRectangle;connectable=0;fillColor=none;top=0;left=0;bottom=0;right=0;editable=1;overflow=hidden;" vertex="1" parent="1RJlVSkSbTlHXv3AcvY7-39">
          <mxGeometry width="30" height="30" as="geometry">
            <mxRectangle width="30" height="30" as="alternateBounds" />
          </mxGeometry>
        </mxCell>
        <mxCell id="1RJlVSkSbTlHXv3AcvY7-41" value="Appearance" style="shape=partialRectangle;connectable=0;fillColor=none;top=0;left=0;bottom=0;right=0;align=left;spacingLeft=6;overflow=hidden;" vertex="1" parent="1RJlVSkSbTlHXv3AcvY7-39">
          <mxGeometry x="30" width="150" height="30" as="geometry">
            <mxRectangle width="150" height="30" as="alternateBounds" />
          </mxGeometry>
        </mxCell>
        <mxCell id="1RJlVSkSbTlHXv3AcvY7-42" value="" style="shape=partialRectangle;collapsible=0;dropTarget=0;pointerEvents=0;fillColor=none;top=0;left=0;bottom=0;right=0;points=[[0,0.5],[1,0.5]];portConstraint=eastwest;" vertex="1" parent="1RJlVSkSbTlHXv3AcvY7-29">
          <mxGeometry y="150" width="180" height="30" as="geometry" />
        </mxCell>
        <mxCell id="1RJlVSkSbTlHXv3AcvY7-43" value="" style="shape=partialRectangle;connectable=0;fillColor=none;top=0;left=0;bottom=0;right=0;editable=1;overflow=hidden;" vertex="1" parent="1RJlVSkSbTlHXv3AcvY7-42">
          <mxGeometry width="30" height="30" as="geometry">
            <mxRectangle width="30" height="30" as="alternateBounds" />
          </mxGeometry>
        </mxCell>
        <mxCell id="1RJlVSkSbTlHXv3AcvY7-44" value="Clothes_Set" style="shape=partialRectangle;connectable=0;fillColor=none;top=0;left=0;bottom=0;right=0;align=left;spacingLeft=6;overflow=hidden;" vertex="1" parent="1RJlVSkSbTlHXv3AcvY7-42">
          <mxGeometry x="30" width="150" height="30" as="geometry">
            <mxRectangle width="150" height="30" as="alternateBounds" />
          </mxGeometry>
        </mxCell>
        <mxCell id="1RJlVSkSbTlHXv3AcvY7-51" value="Vehicle" style="shape=table;startSize=30;container=1;collapsible=1;childLayout=tableLayout;fixedRows=1;rowLines=0;fontStyle=1;align=center;resizeLast=1;" vertex="1" parent="S_ySvswpd-Fd6EDV8Ecz-1">
          <mxGeometry x="330" y="40" width="180" height="160" as="geometry" />
        </mxCell>
        <mxCell id="1RJlVSkSbTlHXv3AcvY7-52" value="" style="shape=partialRectangle;collapsible=0;dropTarget=0;pointerEvents=0;fillColor=none;top=0;left=0;bottom=1;right=0;points=[[0,0.5],[1,0.5]];portConstraint=eastwest;" vertex="1" parent="1RJlVSkSbTlHXv3AcvY7-51">
          <mxGeometry y="30" width="180" height="30" as="geometry" />
        </mxCell>
        <mxCell id="1RJlVSkSbTlHXv3AcvY7-53" value="PK" style="shape=partialRectangle;connectable=0;fillColor=none;top=0;left=0;bottom=0;right=0;fontStyle=1;overflow=hidden;" vertex="1" parent="1RJlVSkSbTlHXv3AcvY7-52">
          <mxGeometry width="30" height="30" as="geometry">
            <mxRectangle width="30" height="30" as="alternateBounds" />
          </mxGeometry>
        </mxCell>
        <mxCell id="1RJlVSkSbTlHXv3AcvY7-54" value="Vehicle_Id" style="shape=partialRectangle;connectable=0;fillColor=none;top=0;left=0;bottom=0;right=0;align=left;spacingLeft=6;fontStyle=5;overflow=hidden;" vertex="1" parent="1RJlVSkSbTlHXv3AcvY7-52">
          <mxGeometry x="30" width="150" height="30" as="geometry">
            <mxRectangle width="150" height="30" as="alternateBounds" />
          </mxGeometry>
        </mxCell>
        <mxCell id="1RJlVSkSbTlHXv3AcvY7-55" value="" style="shape=partialRectangle;collapsible=0;dropTarget=0;pointerEvents=0;fillColor=none;top=0;left=0;bottom=0;right=0;points=[[0,0.5],[1,0.5]];portConstraint=eastwest;" vertex="1" parent="1RJlVSkSbTlHXv3AcvY7-51">
          <mxGeometry y="60" width="180" height="30" as="geometry" />
        </mxCell>
        <mxCell id="1RJlVSkSbTlHXv3AcvY7-56" value="" style="shape=partialRectangle;connectable=0;fillColor=none;top=0;left=0;bottom=0;right=0;editable=1;overflow=hidden;" vertex="1" parent="1RJlVSkSbTlHXv3AcvY7-55">
          <mxGeometry width="30" height="30" as="geometry">
            <mxRectangle width="30" height="30" as="alternateBounds" />
          </mxGeometry>
        </mxCell>
        <mxCell id="1RJlVSkSbTlHXv3AcvY7-57" value="Vehicle_Name" style="shape=partialRectangle;connectable=0;fillColor=none;top=0;left=0;bottom=0;right=0;align=left;spacingLeft=6;overflow=hidden;" vertex="1" parent="1RJlVSkSbTlHXv3AcvY7-55">
          <mxGeometry x="30" width="150" height="30" as="geometry">
            <mxRectangle width="150" height="30" as="alternateBounds" />
          </mxGeometry>
        </mxCell>
        <mxCell id="1RJlVSkSbTlHXv3AcvY7-58" value="" style="shape=partialRectangle;collapsible=0;dropTarget=0;pointerEvents=0;fillColor=none;top=0;left=0;bottom=0;right=0;points=[[0,0.5],[1,0.5]];portConstraint=eastwest;" vertex="1" parent="1RJlVSkSbTlHXv3AcvY7-51">
          <mxGeometry y="90" width="180" height="30" as="geometry" />
        </mxCell>
        <mxCell id="1RJlVSkSbTlHXv3AcvY7-59" value="" style="shape=partialRectangle;connectable=0;fillColor=none;top=0;left=0;bottom=0;right=0;editable=1;overflow=hidden;" vertex="1" parent="1RJlVSkSbTlHXv3AcvY7-58">
          <mxGeometry width="30" height="30" as="geometry">
            <mxRectangle width="30" height="30" as="alternateBounds" />
          </mxGeometry>
        </mxCell>
        <mxCell id="1RJlVSkSbTlHXv3AcvY7-60" value="Vehicle_Type" style="shape=partialRectangle;connectable=0;fillColor=none;top=0;left=0;bottom=0;right=0;align=left;spacingLeft=6;overflow=hidden;" vertex="1" parent="1RJlVSkSbTlHXv3AcvY7-58">
          <mxGeometry x="30" width="150" height="30" as="geometry">
            <mxRectangle width="150" height="30" as="alternateBounds" />
          </mxGeometry>
        </mxCell>
        <mxCell id="1RJlVSkSbTlHXv3AcvY7-61" value="" style="shape=partialRectangle;collapsible=0;dropTarget=0;pointerEvents=0;fillColor=none;top=0;left=0;bottom=0;right=0;points=[[0,0.5],[1,0.5]];portConstraint=eastwest;" vertex="1" parent="1RJlVSkSbTlHXv3AcvY7-51">
          <mxGeometry y="120" width="180" height="30" as="geometry" />
        </mxCell>
        <mxCell id="1RJlVSkSbTlHXv3AcvY7-62" value="" style="shape=partialRectangle;connectable=0;fillColor=none;top=0;left=0;bottom=0;right=0;editable=1;overflow=hidden;" vertex="1" parent="1RJlVSkSbTlHXv3AcvY7-61">
          <mxGeometry width="30" height="30" as="geometry">
            <mxRectangle width="30" height="30" as="alternateBounds" />
          </mxGeometry>
        </mxCell>
        <mxCell id="1RJlVSkSbTlHXv3AcvY7-63" value="Vehicle_Cost" style="shape=partialRectangle;connectable=0;fillColor=none;top=0;left=0;bottom=0;right=0;align=left;spacingLeft=6;overflow=hidden;" vertex="1" parent="1RJlVSkSbTlHXv3AcvY7-61">
          <mxGeometry x="30" width="150" height="30" as="geometry">
            <mxRectangle width="150" height="30" as="alternateBounds" />
          </mxGeometry>
        </mxCell>
        <mxCell id="1RJlVSkSbTlHXv3AcvY7-73" value="Property" style="shape=table;startSize=30;container=1;collapsible=1;childLayout=tableLayout;fixedRows=1;rowLines=0;fontStyle=1;align=center;resizeLast=1;" vertex="1" parent="S_ySvswpd-Fd6EDV8Ecz-1">
          <mxGeometry x="610" y="40" width="180" height="190" as="geometry" />
        </mxCell>
        <mxCell id="1RJlVSkSbTlHXv3AcvY7-74" value="" style="shape=partialRectangle;collapsible=0;dropTarget=0;pointerEvents=0;fillColor=none;top=0;left=0;bottom=1;right=0;points=[[0,0.5],[1,0.5]];portConstraint=eastwest;" vertex="1" parent="1RJlVSkSbTlHXv3AcvY7-73">
          <mxGeometry y="30" width="180" height="30" as="geometry" />
        </mxCell>
        <mxCell id="1RJlVSkSbTlHXv3AcvY7-75" value="PK" style="shape=partialRectangle;connectable=0;fillColor=none;top=0;left=0;bottom=0;right=0;fontStyle=1;overflow=hidden;" vertex="1" parent="1RJlVSkSbTlHXv3AcvY7-74">
          <mxGeometry width="30" height="30" as="geometry">
            <mxRectangle width="30" height="30" as="alternateBounds" />
          </mxGeometry>
        </mxCell>
        <mxCell id="1RJlVSkSbTlHXv3AcvY7-76" value="Property_Id" style="shape=partialRectangle;connectable=0;fillColor=none;top=0;left=0;bottom=0;right=0;align=left;spacingLeft=6;fontStyle=5;overflow=hidden;" vertex="1" parent="1RJlVSkSbTlHXv3AcvY7-74">
          <mxGeometry x="30" width="150" height="30" as="geometry">
            <mxRectangle width="150" height="30" as="alternateBounds" />
          </mxGeometry>
        </mxCell>
        <mxCell id="1RJlVSkSbTlHXv3AcvY7-77" value="" style="shape=partialRectangle;collapsible=0;dropTarget=0;pointerEvents=0;fillColor=none;top=0;left=0;bottom=0;right=0;points=[[0,0.5],[1,0.5]];portConstraint=eastwest;" vertex="1" parent="1RJlVSkSbTlHXv3AcvY7-73">
          <mxGeometry y="60" width="180" height="30" as="geometry" />
        </mxCell>
        <mxCell id="1RJlVSkSbTlHXv3AcvY7-78" value="" style="shape=partialRectangle;connectable=0;fillColor=none;top=0;left=0;bottom=0;right=0;editable=1;overflow=hidden;" vertex="1" parent="1RJlVSkSbTlHXv3AcvY7-77">
          <mxGeometry width="30" height="30" as="geometry">
            <mxRectangle width="30" height="30" as="alternateBounds" />
          </mxGeometry>
        </mxCell>
        <mxCell id="1RJlVSkSbTlHXv3AcvY7-79" value="Property_Name" style="shape=partialRectangle;connectable=0;fillColor=none;top=0;left=0;bottom=0;right=0;align=left;spacingLeft=6;overflow=hidden;" vertex="1" parent="1RJlVSkSbTlHXv3AcvY7-77">
          <mxGeometry x="30" width="150" height="30" as="geometry">
            <mxRectangle width="150" height="30" as="alternateBounds" />
          </mxGeometry>
        </mxCell>
        <mxCell id="1RJlVSkSbTlHXv3AcvY7-80" value="" style="shape=partialRectangle;collapsible=0;dropTarget=0;pointerEvents=0;fillColor=none;top=0;left=0;bottom=0;right=0;points=[[0,0.5],[1,0.5]];portConstraint=eastwest;" vertex="1" parent="1RJlVSkSbTlHXv3AcvY7-73">
          <mxGeometry y="90" width="180" height="30" as="geometry" />
        </mxCell>
        <mxCell id="1RJlVSkSbTlHXv3AcvY7-81" value="" style="shape=partialRectangle;connectable=0;fillColor=none;top=0;left=0;bottom=0;right=0;editable=1;overflow=hidden;" vertex="1" parent="1RJlVSkSbTlHXv3AcvY7-80">
          <mxGeometry width="30" height="30" as="geometry">
            <mxRectangle width="30" height="30" as="alternateBounds" />
          </mxGeometry>
        </mxCell>
        <mxCell id="1RJlVSkSbTlHXv3AcvY7-82" value="Property_Type" style="shape=partialRectangle;connectable=0;fillColor=none;top=0;left=0;bottom=0;right=0;align=left;spacingLeft=6;overflow=hidden;" vertex="1" parent="1RJlVSkSbTlHXv3AcvY7-80">
          <mxGeometry x="30" width="150" height="30" as="geometry">
            <mxRectangle width="150" height="30" as="alternateBounds" />
          </mxGeometry>
        </mxCell>
        <mxCell id="1RJlVSkSbTlHXv3AcvY7-83" value="" style="shape=partialRectangle;collapsible=0;dropTarget=0;pointerEvents=0;fillColor=none;top=0;left=0;bottom=0;right=0;points=[[0,0.5],[1,0.5]];portConstraint=eastwest;" vertex="1" parent="1RJlVSkSbTlHXv3AcvY7-73">
          <mxGeometry y="120" width="180" height="30" as="geometry" />
        </mxCell>
        <mxCell id="1RJlVSkSbTlHXv3AcvY7-84" value="" style="shape=partialRectangle;connectable=0;fillColor=none;top=0;left=0;bottom=0;right=0;editable=1;overflow=hidden;" vertex="1" parent="1RJlVSkSbTlHXv3AcvY7-83">
          <mxGeometry width="30" height="30" as="geometry">
            <mxRectangle width="30" height="30" as="alternateBounds" />
          </mxGeometry>
        </mxCell>
        <mxCell id="1RJlVSkSbTlHXv3AcvY7-85" value="Property_Cost" style="shape=partialRectangle;connectable=0;fillColor=none;top=0;left=0;bottom=0;right=0;align=left;spacingLeft=6;overflow=hidden;" vertex="1" parent="1RJlVSkSbTlHXv3AcvY7-83">
          <mxGeometry x="30" width="150" height="30" as="geometry">
            <mxRectangle width="150" height="30" as="alternateBounds" />
          </mxGeometry>
        </mxCell>
        <mxCell id="1RJlVSkSbTlHXv3AcvY7-86" value="" style="shape=partialRectangle;collapsible=0;dropTarget=0;pointerEvents=0;fillColor=none;top=0;left=0;bottom=0;right=0;points=[[0,0.5],[1,0.5]];portConstraint=eastwest;" vertex="1" parent="1RJlVSkSbTlHXv3AcvY7-73">
          <mxGeometry y="150" width="180" height="30" as="geometry" />
        </mxCell>
        <mxCell id="1RJlVSkSbTlHXv3AcvY7-87" value="" style="shape=partialRectangle;connectable=0;fillColor=none;top=0;left=0;bottom=0;right=0;editable=1;overflow=hidden;" vertex="1" parent="1RJlVSkSbTlHXv3AcvY7-86">
          <mxGeometry width="30" height="30" as="geometry">
            <mxRectangle width="30" height="30" as="alternateBounds" />
          </mxGeometry>
        </mxCell>
        <mxCell id="1RJlVSkSbTlHXv3AcvY7-88" value="Property_Location" style="shape=partialRectangle;connectable=0;fillColor=none;top=0;left=0;bottom=0;right=0;align=left;spacingLeft=6;overflow=hidden;" vertex="1" parent="1RJlVSkSbTlHXv3AcvY7-86">
          <mxGeometry x="30" width="150" height="30" as="geometry">
            <mxRectangle width="150" height="30" as="alternateBounds" />
          </mxGeometry>
        </mxCell>
        <mxCell id="1RJlVSkSbTlHXv3AcvY7-89" value="Attributes" style="shape=table;startSize=30;container=1;collapsible=1;childLayout=tableLayout;fixedRows=1;rowLines=0;fontStyle=1;align=center;resizeLast=1;" vertex="1" parent="S_ySvswpd-Fd6EDV8Ecz-1">
          <mxGeometry x="590" y="480" width="180" height="310" as="geometry" />
        </mxCell>
        <mxCell id="1RJlVSkSbTlHXv3AcvY7-90" value="" style="shape=partialRectangle;collapsible=0;dropTarget=0;pointerEvents=0;fillColor=none;top=0;left=0;bottom=1;right=0;points=[[0,0.5],[1,0.5]];portConstraint=eastwest;" vertex="1" parent="1RJlVSkSbTlHXv3AcvY7-89">
          <mxGeometry y="30" width="180" height="30" as="geometry" />
        </mxCell>
        <mxCell id="1RJlVSkSbTlHXv3AcvY7-91" value="FK" style="shape=partialRectangle;connectable=0;fillColor=none;top=0;left=0;bottom=0;right=0;fontStyle=1;overflow=hidden;" vertex="1" parent="1RJlVSkSbTlHXv3AcvY7-90">
          <mxGeometry width="30" height="30" as="geometry">
            <mxRectangle width="30" height="30" as="alternateBounds" />
          </mxGeometry>
        </mxCell>
        <mxCell id="1RJlVSkSbTlHXv3AcvY7-92" value="Player_Name" style="shape=partialRectangle;connectable=0;fillColor=none;top=0;left=0;bottom=0;right=0;align=left;spacingLeft=6;fontStyle=5;overflow=hidden;" vertex="1" parent="1RJlVSkSbTlHXv3AcvY7-90">
          <mxGeometry x="30" width="150" height="30" as="geometry">
            <mxRectangle width="150" height="30" as="alternateBounds" />
          </mxGeometry>
        </mxCell>
        <mxCell id="1RJlVSkSbTlHXv3AcvY7-93" value="" style="shape=partialRectangle;collapsible=0;dropTarget=0;pointerEvents=0;fillColor=none;top=0;left=0;bottom=0;right=0;points=[[0,0.5],[1,0.5]];portConstraint=eastwest;" vertex="1" parent="1RJlVSkSbTlHXv3AcvY7-89">
          <mxGeometry y="60" width="180" height="30" as="geometry" />
        </mxCell>
        <mxCell id="1RJlVSkSbTlHXv3AcvY7-94" value="" style="shape=partialRectangle;connectable=0;fillColor=none;top=0;left=0;bottom=0;right=0;editable=1;overflow=hidden;" vertex="1" parent="1RJlVSkSbTlHXv3AcvY7-93">
          <mxGeometry width="30" height="30" as="geometry">
            <mxRectangle width="30" height="30" as="alternateBounds" />
          </mxGeometry>
        </mxCell>
        <mxCell id="1RJlVSkSbTlHXv3AcvY7-95" value="Health" style="shape=partialRectangle;connectable=0;fillColor=none;top=0;left=0;bottom=0;right=0;align=left;spacingLeft=6;overflow=hidden;" vertex="1" parent="1RJlVSkSbTlHXv3AcvY7-93">
          <mxGeometry x="30" width="150" height="30" as="geometry">
            <mxRectangle width="150" height="30" as="alternateBounds" />
          </mxGeometry>
        </mxCell>
        <mxCell id="1RJlVSkSbTlHXv3AcvY7-96" value="" style="shape=partialRectangle;collapsible=0;dropTarget=0;pointerEvents=0;fillColor=none;top=0;left=0;bottom=0;right=0;points=[[0,0.5],[1,0.5]];portConstraint=eastwest;" vertex="1" parent="1RJlVSkSbTlHXv3AcvY7-89">
          <mxGeometry y="90" width="180" height="30" as="geometry" />
        </mxCell>
        <mxCell id="1RJlVSkSbTlHXv3AcvY7-97" value="" style="shape=partialRectangle;connectable=0;fillColor=none;top=0;left=0;bottom=0;right=0;editable=1;overflow=hidden;" vertex="1" parent="1RJlVSkSbTlHXv3AcvY7-96">
          <mxGeometry width="30" height="30" as="geometry">
            <mxRectangle width="30" height="30" as="alternateBounds" />
          </mxGeometry>
        </mxCell>
        <mxCell id="1RJlVSkSbTlHXv3AcvY7-98" value="Armor" style="shape=partialRectangle;connectable=0;fillColor=none;top=0;left=0;bottom=0;right=0;align=left;spacingLeft=6;overflow=hidden;" vertex="1" parent="1RJlVSkSbTlHXv3AcvY7-96">
          <mxGeometry x="30" width="150" height="30" as="geometry">
            <mxRectangle width="150" height="30" as="alternateBounds" />
          </mxGeometry>
        </mxCell>
        <mxCell id="1RJlVSkSbTlHXv3AcvY7-99" value="" style="shape=partialRectangle;collapsible=0;dropTarget=0;pointerEvents=0;fillColor=none;top=0;left=0;bottom=0;right=0;points=[[0,0.5],[1,0.5]];portConstraint=eastwest;" vertex="1" parent="1RJlVSkSbTlHXv3AcvY7-89">
          <mxGeometry y="120" width="180" height="30" as="geometry" />
        </mxCell>
        <mxCell id="1RJlVSkSbTlHXv3AcvY7-100" value="" style="shape=partialRectangle;connectable=0;fillColor=none;top=0;left=0;bottom=0;right=0;editable=1;overflow=hidden;" vertex="1" parent="1RJlVSkSbTlHXv3AcvY7-99">
          <mxGeometry width="30" height="30" as="geometry">
            <mxRectangle width="30" height="30" as="alternateBounds" />
          </mxGeometry>
        </mxCell>
        <mxCell id="1RJlVSkSbTlHXv3AcvY7-101" value="Driving    " style="shape=partialRectangle;connectable=0;fillColor=none;top=0;left=0;bottom=0;right=0;align=left;spacingLeft=6;overflow=hidden;" vertex="1" parent="1RJlVSkSbTlHXv3AcvY7-99">
          <mxGeometry x="30" width="150" height="30" as="geometry">
            <mxRectangle width="150" height="30" as="alternateBounds" />
          </mxGeometry>
        </mxCell>
        <mxCell id="1RJlVSkSbTlHXv3AcvY7-102" value="" style="shape=partialRectangle;collapsible=0;dropTarget=0;pointerEvents=0;fillColor=none;top=0;left=0;bottom=0;right=0;points=[[0,0.5],[1,0.5]];portConstraint=eastwest;" vertex="1" parent="1RJlVSkSbTlHXv3AcvY7-89">
          <mxGeometry y="150" width="180" height="30" as="geometry" />
        </mxCell>
        <mxCell id="1RJlVSkSbTlHXv3AcvY7-103" value="" style="shape=partialRectangle;connectable=0;fillColor=none;top=0;left=0;bottom=0;right=0;editable=1;overflow=hidden;" vertex="1" parent="1RJlVSkSbTlHXv3AcvY7-102">
          <mxGeometry width="30" height="30" as="geometry">
            <mxRectangle width="30" height="30" as="alternateBounds" />
          </mxGeometry>
        </mxCell>
        <mxCell id="1RJlVSkSbTlHXv3AcvY7-104" value="Stamina" style="shape=partialRectangle;connectable=0;fillColor=none;top=0;left=0;bottom=0;right=0;align=left;spacingLeft=6;overflow=hidden;" vertex="1" parent="1RJlVSkSbTlHXv3AcvY7-102">
          <mxGeometry x="30" width="150" height="30" as="geometry">
            <mxRectangle width="150" height="30" as="alternateBounds" />
          </mxGeometry>
        </mxCell>
        <mxCell id="1RJlVSkSbTlHXv3AcvY7-105" value="" style="shape=partialRectangle;collapsible=0;dropTarget=0;pointerEvents=0;fillColor=none;top=0;left=0;bottom=0;right=0;points=[[0,0.5],[1,0.5]];portConstraint=eastwest;" vertex="1" parent="1RJlVSkSbTlHXv3AcvY7-89">
          <mxGeometry y="180" width="180" height="30" as="geometry" />
        </mxCell>
        <mxCell id="1RJlVSkSbTlHXv3AcvY7-106" value="" style="shape=partialRectangle;connectable=0;fillColor=none;top=0;left=0;bottom=0;right=0;editable=1;overflow=hidden;" vertex="1" parent="1RJlVSkSbTlHXv3AcvY7-105">
          <mxGeometry width="30" height="30" as="geometry">
            <mxRectangle width="30" height="30" as="alternateBounds" />
          </mxGeometry>
        </mxCell>
        <mxCell id="1RJlVSkSbTlHXv3AcvY7-107" value="Strength" style="shape=partialRectangle;connectable=0;fillColor=none;top=0;left=0;bottom=0;right=0;align=left;spacingLeft=6;overflow=hidden;" vertex="1" parent="1RJlVSkSbTlHXv3AcvY7-105">
          <mxGeometry x="30" width="150" height="30" as="geometry">
            <mxRectangle width="150" height="30" as="alternateBounds" />
          </mxGeometry>
        </mxCell>
        <mxCell id="1RJlVSkSbTlHXv3AcvY7-108" value="" style="shape=partialRectangle;collapsible=0;dropTarget=0;pointerEvents=0;fillColor=none;top=0;left=0;bottom=0;right=0;points=[[0,0.5],[1,0.5]];portConstraint=eastwest;" vertex="1" parent="1RJlVSkSbTlHXv3AcvY7-89">
          <mxGeometry y="210" width="180" height="30" as="geometry" />
        </mxCell>
        <mxCell id="1RJlVSkSbTlHXv3AcvY7-109" value="" style="shape=partialRectangle;connectable=0;fillColor=none;top=0;left=0;bottom=0;right=0;editable=1;overflow=hidden;" vertex="1" parent="1RJlVSkSbTlHXv3AcvY7-108">
          <mxGeometry width="30" height="30" as="geometry">
            <mxRectangle width="30" height="30" as="alternateBounds" />
          </mxGeometry>
        </mxCell>
        <mxCell id="1RJlVSkSbTlHXv3AcvY7-110" value="Flight" style="shape=partialRectangle;connectable=0;fillColor=none;top=0;left=0;bottom=0;right=0;align=left;spacingLeft=6;overflow=hidden;" vertex="1" parent="1RJlVSkSbTlHXv3AcvY7-108">
          <mxGeometry x="30" width="150" height="30" as="geometry">
            <mxRectangle width="150" height="30" as="alternateBounds" />
          </mxGeometry>
        </mxCell>
        <mxCell id="1RJlVSkSbTlHXv3AcvY7-111" value="" style="shape=partialRectangle;collapsible=0;dropTarget=0;pointerEvents=0;fillColor=none;top=0;left=0;bottom=0;right=0;points=[[0,0.5],[1,0.5]];portConstraint=eastwest;" vertex="1" parent="1RJlVSkSbTlHXv3AcvY7-89">
          <mxGeometry y="240" width="180" height="30" as="geometry" />
        </mxCell>
        <mxCell id="1RJlVSkSbTlHXv3AcvY7-112" value="" style="shape=partialRectangle;connectable=0;fillColor=none;top=0;left=0;bottom=0;right=0;editable=1;overflow=hidden;" vertex="1" parent="1RJlVSkSbTlHXv3AcvY7-111">
          <mxGeometry width="30" height="30" as="geometry">
            <mxRectangle width="30" height="30" as="alternateBounds" />
          </mxGeometry>
        </mxCell>
        <mxCell id="1RJlVSkSbTlHXv3AcvY7-113" value="Lung_Capacity" style="shape=partialRectangle;connectable=0;fillColor=none;top=0;left=0;bottom=0;right=0;align=left;spacingLeft=6;overflow=hidden;" vertex="1" parent="1RJlVSkSbTlHXv3AcvY7-111">
          <mxGeometry x="30" width="150" height="30" as="geometry">
            <mxRectangle width="150" height="30" as="alternateBounds" />
          </mxGeometry>
        </mxCell>
        <mxCell id="1RJlVSkSbTlHXv3AcvY7-114" value="" style="shape=partialRectangle;collapsible=0;dropTarget=0;pointerEvents=0;fillColor=none;top=0;left=0;bottom=0;right=0;points=[[0,0.5],[1,0.5]];portConstraint=eastwest;" vertex="1" parent="1RJlVSkSbTlHXv3AcvY7-89">
          <mxGeometry y="270" width="180" height="30" as="geometry" />
        </mxCell>
        <mxCell id="1RJlVSkSbTlHXv3AcvY7-115" value="" style="shape=partialRectangle;connectable=0;fillColor=none;top=0;left=0;bottom=0;right=0;editable=1;overflow=hidden;" vertex="1" parent="1RJlVSkSbTlHXv3AcvY7-114">
          <mxGeometry width="30" height="30" as="geometry">
            <mxRectangle width="30" height="30" as="alternateBounds" />
          </mxGeometry>
        </mxCell>
        <mxCell id="1RJlVSkSbTlHXv3AcvY7-116" value="Shooting" style="shape=partialRectangle;connectable=0;fillColor=none;top=0;left=0;bottom=0;right=0;align=left;spacingLeft=6;overflow=hidden;" vertex="1" parent="1RJlVSkSbTlHXv3AcvY7-114">
          <mxGeometry x="30" width="150" height="30" as="geometry">
            <mxRectangle width="150" height="30" as="alternateBounds" />
          </mxGeometry>
        </mxCell>
        <mxCell id="1RJlVSkSbTlHXv3AcvY7-117" value="Mission" style="shape=table;startSize=30;container=1;collapsible=1;childLayout=tableLayout;fixedRows=1;rowLines=0;fontStyle=1;align=center;resizeLast=1;" vertex="1" parent="S_ySvswpd-Fd6EDV8Ecz-1">
          <mxGeometry x="110" y="890" width="180" height="190" as="geometry" />
        </mxCell>
        <mxCell id="1RJlVSkSbTlHXv3AcvY7-118" value="" style="shape=partialRectangle;collapsible=0;dropTarget=0;pointerEvents=0;fillColor=none;top=0;left=0;bottom=1;right=0;points=[[0,0.5],[1,0.5]];portConstraint=eastwest;" vertex="1" parent="1RJlVSkSbTlHXv3AcvY7-117">
          <mxGeometry y="30" width="180" height="30" as="geometry" />
        </mxCell>
        <mxCell id="1RJlVSkSbTlHXv3AcvY7-119" value="PK" style="shape=partialRectangle;connectable=0;fillColor=none;top=0;left=0;bottom=0;right=0;fontStyle=1;overflow=hidden;" vertex="1" parent="1RJlVSkSbTlHXv3AcvY7-118">
          <mxGeometry width="30" height="30" as="geometry">
            <mxRectangle width="30" height="30" as="alternateBounds" />
          </mxGeometry>
        </mxCell>
        <mxCell id="1RJlVSkSbTlHXv3AcvY7-120" value="Mission_Name" style="shape=partialRectangle;connectable=0;fillColor=none;top=0;left=0;bottom=0;right=0;align=left;spacingLeft=6;fontStyle=5;overflow=hidden;" vertex="1" parent="1RJlVSkSbTlHXv3AcvY7-118">
          <mxGeometry x="30" width="150" height="30" as="geometry">
            <mxRectangle width="150" height="30" as="alternateBounds" />
          </mxGeometry>
        </mxCell>
        <mxCell id="1RJlVSkSbTlHXv3AcvY7-121" value="" style="shape=partialRectangle;collapsible=0;dropTarget=0;pointerEvents=0;fillColor=none;top=0;left=0;bottom=0;right=0;points=[[0,0.5],[1,0.5]];portConstraint=eastwest;" vertex="1" parent="1RJlVSkSbTlHXv3AcvY7-117">
          <mxGeometry y="60" width="180" height="30" as="geometry" />
        </mxCell>
        <mxCell id="1RJlVSkSbTlHXv3AcvY7-122" value="" style="shape=partialRectangle;connectable=0;fillColor=none;top=0;left=0;bottom=0;right=0;editable=1;overflow=hidden;" vertex="1" parent="1RJlVSkSbTlHXv3AcvY7-121">
          <mxGeometry width="30" height="30" as="geometry">
            <mxRectangle width="30" height="30" as="alternateBounds" />
          </mxGeometry>
        </mxCell>
        <mxCell id="1RJlVSkSbTlHXv3AcvY7-123" value="Reward" style="shape=partialRectangle;connectable=0;fillColor=none;top=0;left=0;bottom=0;right=0;align=left;spacingLeft=6;overflow=hidden;" vertex="1" parent="1RJlVSkSbTlHXv3AcvY7-121">
          <mxGeometry x="30" width="150" height="30" as="geometry">
            <mxRectangle width="150" height="30" as="alternateBounds" />
          </mxGeometry>
        </mxCell>
        <mxCell id="1RJlVSkSbTlHXv3AcvY7-124" value="" style="shape=partialRectangle;collapsible=0;dropTarget=0;pointerEvents=0;fillColor=none;top=0;left=0;bottom=0;right=0;points=[[0,0.5],[1,0.5]];portConstraint=eastwest;" vertex="1" parent="1RJlVSkSbTlHXv3AcvY7-117">
          <mxGeometry y="90" width="180" height="30" as="geometry" />
        </mxCell>
        <mxCell id="1RJlVSkSbTlHXv3AcvY7-125" value="" style="shape=partialRectangle;connectable=0;fillColor=none;top=0;left=0;bottom=0;right=0;editable=1;overflow=hidden;" vertex="1" parent="1RJlVSkSbTlHXv3AcvY7-124">
          <mxGeometry width="30" height="30" as="geometry">
            <mxRectangle width="30" height="30" as="alternateBounds" />
          </mxGeometry>
        </mxCell>
        <mxCell id="1RJlVSkSbTlHXv3AcvY7-126" value="Time" style="shape=partialRectangle;connectable=0;fillColor=none;top=0;left=0;bottom=0;right=0;align=left;spacingLeft=6;overflow=hidden;" vertex="1" parent="1RJlVSkSbTlHXv3AcvY7-124">
          <mxGeometry x="30" width="150" height="30" as="geometry">
            <mxRectangle width="150" height="30" as="alternateBounds" />
          </mxGeometry>
        </mxCell>
        <mxCell id="1RJlVSkSbTlHXv3AcvY7-127" value="" style="shape=partialRectangle;collapsible=0;dropTarget=0;pointerEvents=0;fillColor=none;top=0;left=0;bottom=0;right=0;points=[[0,0.5],[1,0.5]];portConstraint=eastwest;" vertex="1" parent="1RJlVSkSbTlHXv3AcvY7-117">
          <mxGeometry y="120" width="180" height="30" as="geometry" />
        </mxCell>
        <mxCell id="1RJlVSkSbTlHXv3AcvY7-128" value="" style="shape=partialRectangle;connectable=0;fillColor=none;top=0;left=0;bottom=0;right=0;editable=1;overflow=hidden;" vertex="1" parent="1RJlVSkSbTlHXv3AcvY7-127">
          <mxGeometry width="30" height="30" as="geometry">
            <mxRectangle width="30" height="30" as="alternateBounds" />
          </mxGeometry>
        </mxCell>
        <mxCell id="1RJlVSkSbTlHXv3AcvY7-129" value="Start_Location" style="shape=partialRectangle;connectable=0;fillColor=none;top=0;left=0;bottom=0;right=0;align=left;spacingLeft=6;overflow=hidden;" vertex="1" parent="1RJlVSkSbTlHXv3AcvY7-127">
          <mxGeometry x="30" width="150" height="30" as="geometry">
            <mxRectangle width="150" height="30" as="alternateBounds" />
          </mxGeometry>
        </mxCell>
        <mxCell id="1RJlVSkSbTlHXv3AcvY7-130" value="" style="shape=partialRectangle;collapsible=0;dropTarget=0;pointerEvents=0;fillColor=none;top=0;left=0;bottom=0;right=0;points=[[0,0.5],[1,0.5]];portConstraint=eastwest;" vertex="1" parent="1RJlVSkSbTlHXv3AcvY7-117">
          <mxGeometry y="150" width="180" height="30" as="geometry" />
        </mxCell>
        <mxCell id="1RJlVSkSbTlHXv3AcvY7-131" value="" style="shape=partialRectangle;connectable=0;fillColor=none;top=0;left=0;bottom=0;right=0;editable=1;overflow=hidden;" vertex="1" parent="1RJlVSkSbTlHXv3AcvY7-130">
          <mxGeometry width="30" height="30" as="geometry">
            <mxRectangle width="30" height="30" as="alternateBounds" />
          </mxGeometry>
        </mxCell>
        <mxCell id="1RJlVSkSbTlHXv3AcvY7-132" value="Player_Name" style="shape=partialRectangle;connectable=0;fillColor=none;top=0;left=0;bottom=0;right=0;align=left;spacingLeft=6;overflow=hidden;" vertex="1" parent="1RJlVSkSbTlHXv3AcvY7-130">
          <mxGeometry x="30" width="150" height="30" as="geometry">
            <mxRectangle width="150" height="30" as="alternateBounds" />
          </mxGeometry>
        </mxCell>
        <mxCell id="1RJlVSkSbTlHXv3AcvY7-133" value="World_Property" style="shape=table;startSize=30;container=1;collapsible=1;childLayout=tableLayout;fixedRows=1;rowLines=0;fontStyle=1;align=center;resizeLast=1;" vertex="1" parent="S_ySvswpd-Fd6EDV8Ecz-1">
          <mxGeometry x="540" y="890" width="180" height="160" as="geometry" />
        </mxCell>
        <mxCell id="1RJlVSkSbTlHXv3AcvY7-134" value="" style="shape=partialRectangle;collapsible=0;dropTarget=0;pointerEvents=0;fillColor=none;top=0;left=0;bottom=1;right=0;points=[[0,0.5],[1,0.5]];portConstraint=eastwest;" vertex="1" parent="1RJlVSkSbTlHXv3AcvY7-133">
          <mxGeometry y="30" width="180" height="30" as="geometry" />
        </mxCell>
        <mxCell id="1RJlVSkSbTlHXv3AcvY7-135" value="PK" style="shape=partialRectangle;connectable=0;fillColor=none;top=0;left=0;bottom=0;right=0;fontStyle=1;overflow=hidden;" vertex="1" parent="1RJlVSkSbTlHXv3AcvY7-134">
          <mxGeometry width="30" height="30" as="geometry">
            <mxRectangle width="30" height="30" as="alternateBounds" />
          </mxGeometry>
        </mxCell>
        <mxCell id="1RJlVSkSbTlHXv3AcvY7-136" value="W_Property_Location" style="shape=partialRectangle;connectable=0;fillColor=none;top=0;left=0;bottom=0;right=0;align=left;spacingLeft=6;fontStyle=5;overflow=hidden;" vertex="1" parent="1RJlVSkSbTlHXv3AcvY7-134">
          <mxGeometry x="30" width="150" height="30" as="geometry">
            <mxRectangle width="150" height="30" as="alternateBounds" />
          </mxGeometry>
        </mxCell>
        <mxCell id="1RJlVSkSbTlHXv3AcvY7-137" value="" style="shape=partialRectangle;collapsible=0;dropTarget=0;pointerEvents=0;fillColor=none;top=0;left=0;bottom=0;right=0;points=[[0,0.5],[1,0.5]];portConstraint=eastwest;" vertex="1" parent="1RJlVSkSbTlHXv3AcvY7-133">
          <mxGeometry y="60" width="180" height="30" as="geometry" />
        </mxCell>
        <mxCell id="1RJlVSkSbTlHXv3AcvY7-138" value="" style="shape=partialRectangle;connectable=0;fillColor=none;top=0;left=0;bottom=0;right=0;editable=1;overflow=hidden;" vertex="1" parent="1RJlVSkSbTlHXv3AcvY7-137">
          <mxGeometry width="30" height="30" as="geometry">
            <mxRectangle width="30" height="30" as="alternateBounds" />
          </mxGeometry>
        </mxCell>
        <mxCell id="1RJlVSkSbTlHXv3AcvY7-139" value="W_Property_Name" style="shape=partialRectangle;connectable=0;fillColor=none;top=0;left=0;bottom=0;right=0;align=left;spacingLeft=6;overflow=hidden;fontStyle=4" vertex="1" parent="1RJlVSkSbTlHXv3AcvY7-137">
          <mxGeometry x="30" width="150" height="30" as="geometry">
            <mxRectangle width="150" height="30" as="alternateBounds" />
          </mxGeometry>
        </mxCell>
        <mxCell id="1RJlVSkSbTlHXv3AcvY7-140" value="" style="shape=partialRectangle;collapsible=0;dropTarget=0;pointerEvents=0;fillColor=none;top=0;left=0;bottom=0;right=0;points=[[0,0.5],[1,0.5]];portConstraint=eastwest;" vertex="1" parent="1RJlVSkSbTlHXv3AcvY7-133">
          <mxGeometry y="90" width="180" height="30" as="geometry" />
        </mxCell>
        <mxCell id="1RJlVSkSbTlHXv3AcvY7-141" value="" style="shape=partialRectangle;connectable=0;fillColor=none;top=0;left=0;bottom=0;right=0;editable=1;overflow=hidden;" vertex="1" parent="1RJlVSkSbTlHXv3AcvY7-140">
          <mxGeometry width="30" height="30" as="geometry">
            <mxRectangle width="30" height="30" as="alternateBounds" />
          </mxGeometry>
        </mxCell>
        <mxCell id="1RJlVSkSbTlHXv3AcvY7-142" value="W_Property_Type" style="shape=partialRectangle;connectable=0;fillColor=none;top=0;left=0;bottom=0;right=0;align=left;spacingLeft=6;overflow=hidden;" vertex="1" parent="1RJlVSkSbTlHXv3AcvY7-140">
          <mxGeometry x="30" width="150" height="30" as="geometry">
            <mxRectangle width="150" height="30" as="alternateBounds" />
          </mxGeometry>
        </mxCell>
        <mxCell id="1RJlVSkSbTlHXv3AcvY7-143" value="" style="shape=partialRectangle;collapsible=0;dropTarget=0;pointerEvents=0;fillColor=none;top=0;left=0;bottom=0;right=0;points=[[0,0.5],[1,0.5]];portConstraint=eastwest;" vertex="1" parent="1RJlVSkSbTlHXv3AcvY7-133">
          <mxGeometry y="120" width="180" height="30" as="geometry" />
        </mxCell>
        <mxCell id="1RJlVSkSbTlHXv3AcvY7-144" value="" style="shape=partialRectangle;connectable=0;fillColor=none;top=0;left=0;bottom=0;right=0;editable=1;overflow=hidden;" vertex="1" parent="1RJlVSkSbTlHXv3AcvY7-143">
          <mxGeometry width="30" height="30" as="geometry">
            <mxRectangle width="30" height="30" as="alternateBounds" />
          </mxGeometry>
        </mxCell>
        <mxCell id="1RJlVSkSbTlHXv3AcvY7-145" value="W_Property_Size" style="shape=partialRectangle;connectable=0;fillColor=none;top=0;left=0;bottom=0;right=0;align=left;spacingLeft=6;overflow=hidden;" vertex="1" parent="1RJlVSkSbTlHXv3AcvY7-143">
          <mxGeometry x="30" width="150" height="30" as="geometry">
            <mxRectangle width="150" height="30" as="alternateBounds" />
          </mxGeometry>
        </mxCell>
        <mxCell id="1RJlVSkSbTlHXv3AcvY7-149" value="Property_Owned" style="shape=table;startSize=30;container=1;collapsible=1;childLayout=tableLayout;fixedRows=1;rowLines=0;fontStyle=1;align=center;resizeLast=1;" vertex="1" parent="S_ySvswpd-Fd6EDV8Ecz-1">
          <mxGeometry x="610" y="320" width="180" height="100" as="geometry" />
        </mxCell>
        <mxCell id="1RJlVSkSbTlHXv3AcvY7-150" value="" style="shape=partialRectangle;collapsible=0;dropTarget=0;pointerEvents=0;fillColor=none;top=0;left=0;bottom=1;right=0;points=[[0,0.5],[1,0.5]];portConstraint=eastwest;" vertex="1" parent="1RJlVSkSbTlHXv3AcvY7-149">
          <mxGeometry y="30" width="180" height="30" as="geometry" />
        </mxCell>
        <mxCell id="1RJlVSkSbTlHXv3AcvY7-151" value="FK" style="shape=partialRectangle;connectable=0;fillColor=none;top=0;left=0;bottom=0;right=0;fontStyle=1;overflow=hidden;" vertex="1" parent="1RJlVSkSbTlHXv3AcvY7-150">
          <mxGeometry width="30" height="30" as="geometry">
            <mxRectangle width="30" height="30" as="alternateBounds" />
          </mxGeometry>
        </mxCell>
        <mxCell id="1RJlVSkSbTlHXv3AcvY7-152" value="Property_Id" style="shape=partialRectangle;connectable=0;fillColor=none;top=0;left=0;bottom=0;right=0;align=left;spacingLeft=6;fontStyle=5;overflow=hidden;" vertex="1" parent="1RJlVSkSbTlHXv3AcvY7-150">
          <mxGeometry x="30" width="150" height="30" as="geometry">
            <mxRectangle width="150" height="30" as="alternateBounds" />
          </mxGeometry>
        </mxCell>
        <mxCell id="1RJlVSkSbTlHXv3AcvY7-153" value="" style="shape=partialRectangle;collapsible=0;dropTarget=0;pointerEvents=0;fillColor=none;top=0;left=0;bottom=0;right=0;points=[[0,0.5],[1,0.5]];portConstraint=eastwest;" vertex="1" parent="1RJlVSkSbTlHXv3AcvY7-149">
          <mxGeometry y="60" width="180" height="30" as="geometry" />
        </mxCell>
        <mxCell id="1RJlVSkSbTlHXv3AcvY7-154" value="FK" style="shape=partialRectangle;connectable=0;fillColor=none;top=0;left=0;bottom=0;right=0;editable=1;overflow=hidden;fontStyle=1" vertex="1" parent="1RJlVSkSbTlHXv3AcvY7-153">
          <mxGeometry width="30" height="30" as="geometry">
            <mxRectangle width="30" height="30" as="alternateBounds" />
          </mxGeometry>
        </mxCell>
        <mxCell id="1RJlVSkSbTlHXv3AcvY7-155" value="Player_Name" style="shape=partialRectangle;connectable=0;fillColor=none;top=0;left=0;bottom=0;right=0;align=left;spacingLeft=6;overflow=hidden;fontStyle=5" vertex="1" parent="1RJlVSkSbTlHXv3AcvY7-153">
          <mxGeometry x="30" width="150" height="30" as="geometry">
            <mxRectangle width="150" height="30" as="alternateBounds" />
          </mxGeometry>
        </mxCell>
        <mxCell id="1RJlVSkSbTlHXv3AcvY7-162" value="Vehicles_Owned" style="shape=table;startSize=30;container=1;collapsible=1;childLayout=tableLayout;fixedRows=1;rowLines=0;fontStyle=1;align=center;resizeLast=1;" vertex="1" parent="S_ySvswpd-Fd6EDV8Ecz-1">
          <mxGeometry x="330" y="330" width="180" height="100" as="geometry" />
        </mxCell>
        <mxCell id="1RJlVSkSbTlHXv3AcvY7-163" value="" style="shape=partialRectangle;collapsible=0;dropTarget=0;pointerEvents=0;fillColor=none;top=0;left=0;bottom=1;right=0;points=[[0,0.5],[1,0.5]];portConstraint=eastwest;" vertex="1" parent="1RJlVSkSbTlHXv3AcvY7-162">
          <mxGeometry y="30" width="180" height="30" as="geometry" />
        </mxCell>
        <mxCell id="1RJlVSkSbTlHXv3AcvY7-164" value="FK" style="shape=partialRectangle;connectable=0;fillColor=none;top=0;left=0;bottom=0;right=0;fontStyle=1;overflow=hidden;" vertex="1" parent="1RJlVSkSbTlHXv3AcvY7-163">
          <mxGeometry width="30" height="30" as="geometry">
            <mxRectangle width="30" height="30" as="alternateBounds" />
          </mxGeometry>
        </mxCell>
        <mxCell id="1RJlVSkSbTlHXv3AcvY7-165" value="Vehicle_Id" style="shape=partialRectangle;connectable=0;fillColor=none;top=0;left=0;bottom=0;right=0;align=left;spacingLeft=6;fontStyle=5;overflow=hidden;" vertex="1" parent="1RJlVSkSbTlHXv3AcvY7-163">
          <mxGeometry x="30" width="150" height="30" as="geometry">
            <mxRectangle width="150" height="30" as="alternateBounds" />
          </mxGeometry>
        </mxCell>
        <mxCell id="1RJlVSkSbTlHXv3AcvY7-166" value="" style="shape=partialRectangle;collapsible=0;dropTarget=0;pointerEvents=0;fillColor=none;top=0;left=0;bottom=0;right=0;points=[[0,0.5],[1,0.5]];portConstraint=eastwest;" vertex="1" parent="1RJlVSkSbTlHXv3AcvY7-162">
          <mxGeometry y="60" width="180" height="30" as="geometry" />
        </mxCell>
        <mxCell id="1RJlVSkSbTlHXv3AcvY7-167" value="FK" style="shape=partialRectangle;connectable=0;fillColor=none;top=0;left=0;bottom=0;right=0;editable=1;overflow=hidden;fontStyle=1" vertex="1" parent="1RJlVSkSbTlHXv3AcvY7-166">
          <mxGeometry width="30" height="30" as="geometry">
            <mxRectangle width="30" height="30" as="alternateBounds" />
          </mxGeometry>
        </mxCell>
        <mxCell id="1RJlVSkSbTlHXv3AcvY7-168" value="Player_Name" style="shape=partialRectangle;connectable=0;fillColor=none;top=0;left=0;bottom=0;right=0;align=left;spacingLeft=6;overflow=hidden;fontStyle=5" vertex="1" parent="1RJlVSkSbTlHXv3AcvY7-166">
          <mxGeometry x="30" width="150" height="30" as="geometry">
            <mxRectangle width="150" height="30" as="alternateBounds" />
          </mxGeometry>
        </mxCell>
        <mxCell id="1RJlVSkSbTlHXv3AcvY7-169" value="Guns_Owned" style="shape=table;startSize=30;container=1;collapsible=1;childLayout=tableLayout;fixedRows=1;rowLines=0;fontStyle=1;align=center;resizeLast=1;" vertex="1" parent="S_ySvswpd-Fd6EDV8Ecz-1">
          <mxGeometry x="20" y="330" width="180" height="100" as="geometry" />
        </mxCell>
        <mxCell id="1RJlVSkSbTlHXv3AcvY7-170" value="" style="shape=partialRectangle;collapsible=0;dropTarget=0;pointerEvents=0;fillColor=none;top=0;left=0;bottom=1;right=0;points=[[0,0.5],[1,0.5]];portConstraint=eastwest;" vertex="1" parent="1RJlVSkSbTlHXv3AcvY7-169">
          <mxGeometry y="30" width="180" height="30" as="geometry" />
        </mxCell>
        <mxCell id="1RJlVSkSbTlHXv3AcvY7-171" value="FK" style="shape=partialRectangle;connectable=0;fillColor=none;top=0;left=0;bottom=0;right=0;fontStyle=1;overflow=hidden;" vertex="1" parent="1RJlVSkSbTlHXv3AcvY7-170">
          <mxGeometry width="30" height="30" as="geometry">
            <mxRectangle width="30" height="30" as="alternateBounds" />
          </mxGeometry>
        </mxCell>
        <mxCell id="1RJlVSkSbTlHXv3AcvY7-172" value="Gun_Id" style="shape=partialRectangle;connectable=0;fillColor=none;top=0;left=0;bottom=0;right=0;align=left;spacingLeft=6;fontStyle=5;overflow=hidden;" vertex="1" parent="1RJlVSkSbTlHXv3AcvY7-170">
          <mxGeometry x="30" width="150" height="30" as="geometry">
            <mxRectangle width="150" height="30" as="alternateBounds" />
          </mxGeometry>
        </mxCell>
        <mxCell id="1RJlVSkSbTlHXv3AcvY7-173" value="" style="shape=partialRectangle;collapsible=0;dropTarget=0;pointerEvents=0;fillColor=none;top=0;left=0;bottom=0;right=0;points=[[0,0.5],[1,0.5]];portConstraint=eastwest;" vertex="1" parent="1RJlVSkSbTlHXv3AcvY7-169">
          <mxGeometry y="60" width="180" height="30" as="geometry" />
        </mxCell>
        <mxCell id="1RJlVSkSbTlHXv3AcvY7-174" value="FK" style="shape=partialRectangle;connectable=0;fillColor=none;top=0;left=0;bottom=0;right=0;editable=1;overflow=hidden;fontStyle=1" vertex="1" parent="1RJlVSkSbTlHXv3AcvY7-173">
          <mxGeometry width="30" height="30" as="geometry">
            <mxRectangle width="30" height="30" as="alternateBounds" />
          </mxGeometry>
        </mxCell>
        <mxCell id="1RJlVSkSbTlHXv3AcvY7-175" value="Player_Name" style="shape=partialRectangle;connectable=0;fillColor=none;top=0;left=0;bottom=0;right=0;align=left;spacingLeft=6;overflow=hidden;fontStyle=5" vertex="1" parent="1RJlVSkSbTlHXv3AcvY7-173">
          <mxGeometry x="30" width="150" height="30" as="geometry">
            <mxRectangle width="150" height="30" as="alternateBounds" />
          </mxGeometry>
        </mxCell>
        <mxCell id="1RJlVSkSbTlHXv3AcvY7-179" style="edgeStyle=orthogonalEdgeStyle;rounded=0;orthogonalLoop=1;jettySize=auto;html=1;entryX=0;entryY=0.5;entryDx=0;entryDy=0;" edge="1" parent="S_ySvswpd-Fd6EDV8Ecz-1" source="1RJlVSkSbTlHXv3AcvY7-166" target="1RJlVSkSbTlHXv3AcvY7-30">
          <mxGeometry relative="1" as="geometry">
            <Array as="points">
              <mxPoint x="280" y="405" />
              <mxPoint x="280" y="585" />
            </Array>
          </mxGeometry>
        </mxCell>
        <mxCell id="1RJlVSkSbTlHXv3AcvY7-180" style="edgeStyle=orthogonalEdgeStyle;rounded=0;orthogonalLoop=1;jettySize=auto;html=1;entryX=0;entryY=0.5;entryDx=0;entryDy=0;" edge="1" parent="S_ySvswpd-Fd6EDV8Ecz-1" target="1RJlVSkSbTlHXv3AcvY7-30">
          <mxGeometry relative="1" as="geometry">
            <mxPoint x="610" y="395" as="sourcePoint" />
            <Array as="points">
              <mxPoint x="560" y="395" />
              <mxPoint x="560" y="480" />
              <mxPoint x="303" y="480" />
              <mxPoint x="303" y="585" />
            </Array>
          </mxGeometry>
        </mxCell>
        <mxCell id="1RJlVSkSbTlHXv3AcvY7-181" style="edgeStyle=orthogonalEdgeStyle;rounded=0;orthogonalLoop=1;jettySize=auto;html=1;entryX=0;entryY=0.5;entryDx=0;entryDy=0;" edge="1" parent="S_ySvswpd-Fd6EDV8Ecz-1" source="1RJlVSkSbTlHXv3AcvY7-173" target="1RJlVSkSbTlHXv3AcvY7-30">
          <mxGeometry relative="1" as="geometry" />
        </mxCell>
        <mxCell id="1RJlVSkSbTlHXv3AcvY7-182" style="edgeStyle=orthogonalEdgeStyle;rounded=0;orthogonalLoop=1;jettySize=auto;html=1;entryX=0;entryY=0.5;entryDx=0;entryDy=0;" edge="1" parent="S_ySvswpd-Fd6EDV8Ecz-1" source="1RJlVSkSbTlHXv3AcvY7-163" target="1RJlVSkSbTlHXv3AcvY7-52">
          <mxGeometry relative="1" as="geometry" />
        </mxCell>
        <mxCell id="1RJlVSkSbTlHXv3AcvY7-183" style="edgeStyle=orthogonalEdgeStyle;rounded=0;orthogonalLoop=1;jettySize=auto;html=1;entryX=1;entryY=0.5;entryDx=0;entryDy=0;" edge="1" parent="S_ySvswpd-Fd6EDV8Ecz-1" source="1RJlVSkSbTlHXv3AcvY7-170" target="1RJlVSkSbTlHXv3AcvY7-4">
          <mxGeometry relative="1" as="geometry">
            <Array as="points">
              <mxPoint x="240" y="375" />
              <mxPoint x="240" y="85" />
            </Array>
          </mxGeometry>
        </mxCell>
        <mxCell id="1RJlVSkSbTlHXv3AcvY7-184" style="edgeStyle=orthogonalEdgeStyle;rounded=0;orthogonalLoop=1;jettySize=auto;html=1;entryX=0;entryY=0.5;entryDx=0;entryDy=0;" edge="1" parent="S_ySvswpd-Fd6EDV8Ecz-1" source="1RJlVSkSbTlHXv3AcvY7-150" target="1RJlVSkSbTlHXv3AcvY7-74">
          <mxGeometry relative="1" as="geometry" />
        </mxCell>
        <mxCell id="1RJlVSkSbTlHXv3AcvY7-185" style="edgeStyle=orthogonalEdgeStyle;rounded=0;orthogonalLoop=1;jettySize=auto;html=1;entryX=1;entryY=0.5;entryDx=0;entryDy=0;" edge="1" parent="S_ySvswpd-Fd6EDV8Ecz-1" source="1RJlVSkSbTlHXv3AcvY7-90" target="1RJlVSkSbTlHXv3AcvY7-30">
          <mxGeometry relative="1" as="geometry" />
        </mxCell>
        <mxCell id="1RJlVSkSbTlHXv3AcvY7-186" style="edgeStyle=orthogonalEdgeStyle;rounded=0;orthogonalLoop=1;jettySize=auto;html=1;entryX=0;entryY=0.5;entryDx=0;entryDy=0;" edge="1" parent="S_ySvswpd-Fd6EDV8Ecz-1" source="1RJlVSkSbTlHXv3AcvY7-127" target="1RJlVSkSbTlHXv3AcvY7-134">
          <mxGeometry relative="1" as="geometry" />
        </mxCell>
        <mxCell id="1RJlVSkSbTlHXv3AcvY7-187" style="edgeStyle=orthogonalEdgeStyle;rounded=0;orthogonalLoop=1;jettySize=auto;html=1;entryX=0;entryY=0.5;entryDx=0;entryDy=0;" edge="1" parent="S_ySvswpd-Fd6EDV8Ecz-1" source="1RJlVSkSbTlHXv3AcvY7-130" target="1RJlVSkSbTlHXv3AcvY7-30">
          <mxGeometry relative="1" as="geometry">
            <Array as="points">
              <mxPoint x="70" y="1055" />
              <mxPoint x="70" y="585" />
            </Array>
          </mxGeometry>
        </mxCell>
      </root>
    </mxGraphModel>
  </diagram>
</mxfile>
